<svg id="Capa_1" data-name="Capa 1" xmlns="http://www.w3.org/2000/svg" viewBox="0 0 927.2 1025.76"><defs><style>.cls-1{fill:#733a37;}.cls-2{fill:#f1cf9c;}.cls-3{fill:#f1ce9c;}.cls-4{fill:#f8f2e0;}.cls-5{fill:#c09676;}.cls-6{fill:#e9a651;}.cls-7{fill:#e9a552;}.cls-8{fill:#e9a557;}.cls-9{fill:#be7e4c;}.cls-10{fill:#c09576;}.cls-11{fill:#f9f1e0;}.cls-12{fill:#c99f80;}.cls-13{fill:#f1cd9c;}.cls-14{fill:#f9f1e2;}.cls-15{fill:#f9f1e1;}.cls-16{fill:#b47444;}.cls-17{fill:#cfb6ac;}.cls-18{fill:#b67645;}.cls-19{fill:#f7f0df;}.cls-20{fill:#f8f0df;}.cls-21{fill:#b87743;}.cls-22{fill:#f9eae0;}.cls-23{fill:#c1a99f;}.cls-24{fill:#faebe0;}.cls-25{fill:#f9ede0;}.cls-26{fill:#f7e0da;}.cls-27{fill:#d0b8ae;}.cls-28{fill:#cbb1a6;}.cls-29{fill:#c0a59c;}.cls-30{fill:#fae8df;}.cls-31{fill:#f6e2da;}.cls-32{fill:#b97d61;}.cls-33{fill:#bfa198;}.cls-34{fill:#c5a79e;}.cls-35{fill:#c0a59a;}.cls-36{fill:#d0b3aa;}.cls-37{fill:#704942;}.cls-38{fill:#f8e2dd;}.cls-39{fill:#d9b88c;}.cls-40{fill:#f8ebdd;}.cls-41{fill:#ae7349;}.cls-42{fill:#c7a99f;}.cls-43{fill:#f6e8de;}.cls-44{fill:#f0e0d3;}.cls-45{fill:#c2a99e;}.cls-46{fill:#bf9b97;}.cls-47{fill:#c1a39a;}.cls-48{fill:#f6e3d8;}.cls-49{fill:#eed3ce;}.cls-50{fill:#e0bdb9;}.cls-51{fill:#edd5cd;}.cls-52{fill:#f6e3d7;}.cls-53{fill:#c7a79e;}.cls-54{fill:#f7e5d9;}.cls-55{fill:#f0dcd3;}.cls-56{fill:#f2e0d5;}.cls-57{fill:#eed7d0;}.cls-58{fill:#f1cfcb;}.cls-59{fill:#f6e1d7;}.cls-60{fill:#edd3cd;}.cls-61{fill:#b78a59;}.cls-62{fill:#c49879;}.cls-63{fill:#976141;}.cls-64{fill:#b47c4a;}.cls-65{fill:#b07c46;}.cls-66{fill:#ab7245;}.cls-67{fill:#b47847;}.cls-68{fill:#b4804c;}.cls-69{fill:#b17f47;}.cls-70{fill:#a17757;}.cls-71{fill:#af7e4c;}.cls-72{fill:#996440;}.cls-73{fill:#b7906c;}.cls-74{fill:#b18b65;}.cls-75{fill:#a78255;}.cls-76{fill:#aa835d;}.cls-77{fill:#ab7c48;}.cls-78{fill:#743a39;}.cls-79{fill:#733b38;}.cls-80{fill:#c9a180;}.cls-81{fill:#b28767;}.cls-82{fill:#b57842;}.cls-83{fill:#744330;}.cls-84{fill:#714231;}.cls-85{fill:#a36c48;}.cls-86{fill:#b47946;}.cls-87{fill:#a26b43;}.cls-88{fill:#b47b47;}.cls-89{fill:#b57c49;}.cls-90{fill:#d0a784;}.cls-91{fill:#bb7d4d;}.cls-92{fill:#b78555;}.cls-93{fill:#b27c49;}.cls-94{fill:#b2814c;}.cls-95{fill:#966746;}.cls-96{fill:#b2804b;}.cls-97{fill:#b27a49;}.cls-98{fill:#ad7f49;}.cls-99{fill:#b5875f;}.cls-100{fill:#f3cda0;}.cls-101{fill:#996042;}.cls-102{fill:#9c6b4f;}.cls-103{fill:#8c6046;}.cls-104{fill:#bc783c;}.cls-105{fill:#c5854f;}.cls-106{fill:#c1814e;}.cls-107{fill:#996441;}.cls-108{fill:#f1cba1;}.cls-109{fill:#e7bd9a;}.cls-110{fill:#a7714b;}.cls-111{fill:#eac097;}.cls-112{fill:#f2c9a5;}.cls-113{fill:#975f41;}.cls-114{fill:#986f4e;}.cls-115{fill:#b17c4c;}.cls-116{fill:#be9562;}.cls-117{fill:#b48b55;}.cls-118{fill:#9e847a;}.cls-119{fill:#975e42;}.cls-120{fill:#996143;}.cls-121{fill:#e2b997;}.cls-122{fill:#92644a;}.cls-123{fill:#9c704f;}.cls-124{fill:#996748;}.cls-125{fill:#f9f0e1;}.cls-126{fill:#e1cbc2;}.cls-127{fill:#f7f1e0;}.cls-128{fill:#e4cec7;}.cls-129{fill:#faece1;}.cls-130{fill:#f1c89f;}.cls-131{fill:#976344;}</style></defs><title>LogoMrBread</title><path class="cls-1" d="M992.38,226.16c-8.11-.31-8.2-2.38-7.39-9.26,2.18-18.61-11.14-27.71-28.13-19.62-4.55,2.16-8.58,5.45-12.75,8.36-13,9.06-21.46,22.37-31.2,35.31-3.25-5.4-1.34-9.4-.7-13.41,1.8-11.32,4.4-22.51,4.57-34.08s-2.22-22-14.93-24.87c-12-2.73-20,3.95-25.8,14.22-6.15,10.87-7.3,23.36-12.11,36.11-21.61-15.34-44.9-23.3-70.89-22.14-5.67.25-5.78-3.53-5.23-7.78,1.9-14.64-3.23-27.73-9.58-40.34-14.86-29.52-36.87-52.78-63.83-71.56-5.21-3.63-69.47-32.82-110.74-43.68S493.86,23.21,450.45,30.87,330.06,76,329.44,76.57c-1.62,1.37-3.33,2.64-5,3.91C292.54,104.41,271,133.94,272.92,176c.26,5.75-2.64,8.4-7.26,10.56C254.06,192,243,198.31,233,206.39c-46.58,37.82-77.2,102.27-32.05,162.45,19.45,25.93,44.11,43.8,79.37,36.77,4.91-1,6.88.28,8.55,4.57,4.41,11.36,13.47,18.23,23.78,23.84,20.12,11,23.84,19,20.3,42.21-2.77,18.14-8.28,35.58-13.08,53.21-7.36,27-7.43,27.11-32.44,13.75-6.46-3.45-9.38-7-6.17-15,4.54-11.4,2.88-22.72-6.14-31.87-3.52-3.57-3.38-6.93-2.41-11.5,6-28.23-4.65-46.11-32.65-53.64-7.15-1.92-10.15-5.69-13.18-11.82-9.51-19.19-22.89-34.81-44.1-41.83-21.64-7.16-36.54-.71-45,20.32-2.14,5.31-5.16,5.61-9.58,6-25.51,2.06-37.66,19-31,43.88,1.65,6.12,1.55,9.65-4.46,13.65C81,469.09,77.11,482.87,81.52,496.13c6.31,19,18.76,32,38.05,38.08,4.9,1.54,9.25,3.06,12.52,7.82,11,16,27,22.65,46.06,22.58,5.5,0,10.92-.48,15.37,4.21,8.08,8.49,18.63,10.64,29.41,8.07,7.7-1.84,11.44.44,15.43,6.66,12.73,19.85,27.78,38,48.18,50.17,9.61,5.72,11.73,12.17,11.87,22.46.34,26,8.4,48.91,28.79,66.93,12.49,11,26.88,17.55,42,23.45,5.79,2.26,12.84,3.22,15.68,9.94,14.61,34.59,39.3,60.11,70.85,79.61,2.2,1.36,5.73,2,4.35,6.49-2.91,9.35-25.37,27.77-35.51,27.87-12.38.12-21.11,5.89-27.17,16-2.5,4.17-4.54,8.51-10.19,8.09-6.48-.47-5.8-6.67-7.15-10.61-6.38-18.67-15.15-35.92-27.32-51.56C303.82,769.56,224.9,776.31,195,846.06,169.37,905.64,180.81,948,232.82,986.7c39.87,29.67,85.26,46.21,132.64,60,37.13,10.81,63.72.83,85.56-28.68,2.78-3.76,6.28-7.16,8.27-11.3,4-8.29,7.86-8.89,16.6-4.67,40.61,19.58,81.86,37.91,126.61,46.17,33,6.09,57.68-4.45,74.92-31,6.33-9.74,10.08-20.6,14.21-31.3C701,961.6,706.48,936.33,709,910.38c2.77-27.94-9.16-48.86-31.59-64-27.27-18.35-57.59-19.73-88.65-12.86-3.68.81-7.2,4.15-9.78-.1-2.39-4,2.22-5.84,4.58-7.84,11.07-9.4,22.06-19.25,29.95-31.23,14.08-21.38,32.27-34.83,58-38,5.76-.72,11.39-3.46,16.82-5.85,30.46-13.45,58.21-30.06,73.45-61.78,11.45-23.83,13.26-49,11.24-74.71-.63-8,.88-12,9.73-14.31,84.24-22,133.66-86.25,133.65-173.11,0-7,.74-11.79,8.37-14.87,11.66-4.71,16.75-14,13.45-26.77-.91-3.53-1.46-6.5,2.52-8.69,25.44-14,29.2-36.86,24.41-62.52-1.82-9.79.65-16.59,7.24-24.08,10.35-11.78,22.51-22.15,30.64-35.76S1006.16,226.67,992.38,226.16ZM490.69,770.81c7.15.34,12.6.55,18,.87,2.95.17,6.73,0,7.76,3.08,1.24,3.66-2.48,5.88-4.57,8.4-2.7,3.26-5.65,3-8.76.41C499.05,780.15,494.09,777.62,490.69,770.81Zm313.19-315c.67-1.08,3-1.81,4.46-1.63,14.81,1.93,28.23-3.36,42.4-7.45-17.84,26.65-41.83,44.79-75.3,56.32C784.25,484.46,794.77,470.54,803.88,455.85Z" transform="translate(-79.76 -25.19)"/><path class="cls-2" d="M864,234.75c.21-2.17-1.53-3.73-3.47-4.95-23.77-14.91-47.84-27.45-77.72-20.63-23.26,5.31-44.7,13.78-63.34,29.06,11.09-20.08,29.51-29.87,50.2-36,7.07-2.1,9.74-5.09,8.26-12.58-4.34-22.12-12.39-42.24-28-59.09-15.14-16.34-31.79-30.86-51-42C597.79,29.51,492.48,22.6,384.1,65.63c-32.79,13-61.55,32.85-81.63,63-20.88,31.36-19.73,64.67,3.06,93.46,4.36,5.51,9.17,10.66,13.46,15.62-4.06,1.2-7.62-2.43-11.39-4.8-13-8.19-22-19.85-27.93-33.89-1.86-4.37-3-8.62-9.83-5.1-38.19,19.7-65.89,48.21-74.94,91.31-9.86,46.93,22.89,98.86,66.34,107.07,18.08,3.41,21.12.56,29.87-15.29,6.5-11.78,12.29-21.22-3.22-29.63l.09-1.71c-3.37-5.73-6.68-11.28,4.07-12.63,2.86-.36,5.18-2.52,7-4.84,2.58-4.63,5.65-8.27,11.79-7.78,13.88,1.09,23.95-5.43,32.43-15.88,4.5-5.55,10.11-10.21,15-15.47,1.67-1.79,3.28-5.56,5.57-4.56,15.42,6.79,20.16-3.59,24.87-14.63a9.81,9.81,0,0,1,4.3-4.59c11.86-6.09,11.52-21.22,21.49-28.81,1.82-1.38,1-4.94-.55-7.12-1.93-2.79-4.14-5.37-4.2-9-.44-6-.18-11.6,7.65-12.58,5.56-2.9,11.21-5.64,14.85-11.13,4-6.11,9.09-9.34,16.91-7.06,4.71,1.37,9.16.09,11.71-4.8,1.86-3.57,5.24-5.26,8.62-7,5.55-1.74,7.81-7.09,11.65-10.7,6.32-7.06,13.41-13.34,20.13-20-2.11,2.09-4.24,4.15-6.27,6.32-3.78,4.07-5.81,8.66-2.26,13.72s8.44,5.31,13.58,2.82c4.2-2,8.87-2.93,12.86-5.44,5.54-3.5,9.71-4,12.89,3.45,2.79,6.5,8.22,9.77,15.57,6.37,5.11-2.37,8.5-6.93,12.48-10.7a37.92,37.92,0,0,1,28.68-10.84c20.39,1.11,40.74,2.8,61.15,3.1a9.5,9.5,0,0,0,3.19-1.79c5.4-6.1,9.92-5.58,13.61,1.75A25.32,25.32,0,0,0,678,167.6c11.54,5.93,13.5,16.56,6.93,27.93-9.43,16.31-21.55,30.09-35.6,42.43-6.15,5.4-10.94,11.69-11.13,20.59-.13,5.92.75,11.15,6.46,14,5.43,2.76,9.8.4,13.49-3.75,5.12-6.6,10.34-12.94,19.94-7.2,10.8,6.59,12.38,13.72,5.09,22.28-2.54,3-7,5.18-4.73,10.39-2.53,3.33-4.39,7.8-7.73,9.78-11.56,6.85-8.56,16-4.81,25.22,5.74,14.17,16,24.7,28.17,33.49,6.57,1.17,6.94-4.63,7-7.94.21-6.46,2.39-12.53,4.24-18.19,2.36-7.24,2.2-16.85,11.44-20.59a11.72,11.72,0,0,0,5.75-4.3c10-8.27,17.58-18,15.54-31.78-1.74-11.81,6.07-17.79,14.11-21.64,6.84-3.27,14.43-6.75,22.54-6.81,5.51,0,11.49-3,16-1.62,5.94,1.88-.62,10.36,4.06,14.47a29.74,29.74,0,0,0,21.73,3.93c16.84-10.63,29.36-1.33,40.91,9.8C869.77,264.48,862.59,249,864,234.75Z" transform="translate(-79.76 -25.19)"/><path class="cls-3" d="M568.73,760.57c-65.71.92-130.76-3.42-193-27-46.22-17.53-61.16-29.43-63.88-91.83-2-45.84,10.51-90,22.4-133.94,3.34-12.31,6.09-24.66,8.42-37.2,3.2-17.15-2.49-29.81-16.22-39.78A111.47,111.47,0,0,1,312,418.4a37.22,37.22,0,0,1,.26-51.87,10.26,10.26,0,0,1,10.23-3.29c22.49,4.25,43.89-.38,64.85-8.31,5.41-2.2,9.75-1.2,12.67,4.18,4.55,8.38,11.25,10.38,20.08,7.16,4.22-1.55,8.31-1.14,10.65,3.64,2.21,8.3-6,10.28-8.79,15.1,11.35-14.35,29.62-15.44,45.35-21.82,9.48-5.72,17.45,1.24,26.06,3.07,9.75,9.73,20.78,6,31.74,3,7.33-1.22,14.57-1.73,21.68-5.14,8.11-3.88,14.5.11,17.39,8.85A9.4,9.4,0,0,1,562.8,379c1.25.34,2.17-.58,2.84-1.19,9.33-8.45,21.29-9.83,32.8-12.43,8.9-8.07,20.16-12.1,30.15-17.8-.3,0,0,0-.29,0-10.85,7.31-23.35,7.86-35.38,8.53-4.57.25-14.13,2.92-13.46-8.09,26.09-3.45,49.77-13.31,72.59-28.68,4.89,34.08,25.36,53.21,54.5,66.05,22.43,9.88,29,30.86,13.46,45.74-43.56,41.72-44,94.37-40.13,148.16,2.92,40.11,1.74,79.7-5.86,119.27-4.72,24.61-18.73,40.19-41.2,49.31A155.58,155.58,0,0,1,587.18,759a10.06,10.06,0,0,1-6.21.79c-2.59-.37-6.51,1.75-7.24-2.73-.5-3,.65-6.65,3.46-7.68,13.73-5,23-18.14,39.32-19.16,21.1-1.32,35.42-12.84,41.38-34.06,2-7.17-1-13.87.92-21.24,4.93-18.91,3.63-38.77,7.38-58.13,3-15.74-.33-32.28-1.68-48.45-1.85-22.05,1.54-43.8,5.19-65.48-1.75-18,3.39-33.28,14.37-48.21,7.9-10.75,14.3-22.15,25.2-30.58,4.44-3.44,4.91-10.23-.9-14.12-5-3.32-8.68-8-13.67-11.18a216.84,216.84,0,0,0-18.15-17.85c-6.33-7.47-14.75-10.7-24.14-11.86-5.46,4.74-15.89,7-8.8,17.88,14.82,8.14,10.21,24.94,16.52,36.9-2.9,8,3.27,19.72-9.76,23.48-12-7.45-26-12.19-34.18-24.77-9.91-15.31-39.56-16.15-54.08-.45a36.84,36.84,0,0,1-10.87,8.57c-5.46,2.67-13.19,4.13-8.24,13.82,1.22,2.4-2.5,6-3.88,9-13.67,30.21-16.33,60.42-2.42,91.8,14.55,32.82,53.2,30.52,72.79,6,6.22-7.79,8.86-18.66,19.31-22.9,14.31,4.31,17.52,10.46,13.77,24.06-1.73,6.27-7.86,11.16-5.74,18.54a15,15,0,0,1,1.57,8.92c-2.27,8-10.71,9.36-15.6,14.54C615.49,607.28,603.68,614,590.65,620c-23.11,10.63-45.86,22.25-71,27.19-24,4.71-47.88,11.05-65.12,9.54,9.43,1.53,16.19,11.77,15.24,33.42-1,22.59,2.08,24.37,24.82,20.65,57.15-9.34,94.11-43.55,118.4-93.94a69.63,69.63,0,0,1,7.77-13.13c5.63-7.11,11.53-8.62,17.11.27,2.44,6.32-1.6,10.49-5,14.78-5.86,7.3-7.24,15.09-3,23.64,3.61,7.25,3,14.22-2.43,20.13s-6.89,14.57-13.4,20c-4.9,4.06-9,8.15-16.17,9-7.51.91-12.66,5.73-17.18,13.11-7,11.32-17.51,20.32-26.33,30.49-2.27,2.62-6.14,4.35-9.3,3.08-10.08-4-18,.5-27.47,3.4-15.84,4.87-33.09,4.79-49.23-1.89-4.85-2-9.73-2.26-14.81-1.89s-10.15,1-15-1c4.78,2.38,9.87,1.18,14.84,1,5.93-.2,11.94-.86,16.85,3.52,3.26,2.9,7.55,2.57,11,2.18,12.83-1.48,25.51,1.68,38.62-.72,11.81-2.17,23.19,6.76,35.69,6.87,4.13,0,8.65.13,12.58,1.51C574.3,753.41,575.06,756.92,568.73,760.57Z" transform="translate(-79.76 -25.19)"/><path class="cls-4" d="M862.63,301.45c-2.18-14.72,3.31-26.77,13.75-36.55,3.79-3.57,5.1-4.51-1.2-5.08-1.9-.17-2-2.41-1.84-4.14,1.55-22,1.25-44.34,11.51-64.72,3.14-6.23,6-14.36,15.34-12.17,9.84,2.32,9.44,11,8.91,18.67-.92,13.55-5.63,26.61-5.45,40.33.06,5.09-.45,10.91,5.74,12.83,5.38,1.67,8.83-2.67,11.57-6.26a163.49,163.49,0,0,1,39.63-37.42c4.5-3,9.69-7.09,15.09-2.86,6.06,4.76,5,11.84,1.75,17.45-11.1,19.17-27.31,34.36-41.29,51.29-3.92,4.74-6.75-.19-9.69-1.72-11.92-6.21-23.91-11.92-38.19-10.14,22.83,7.72,43.51,19.23,62.55,33.3,2.8-2.37.67-3.8-.27-4.36-14.6-8.74-7.34-16.6.7-24.73,9.55-9.66,18.52-20.06,30.75-26.47,4.15-2.18,9.2-6.61,13.79-1.4,4,4.52,1.07,9.67-.89,14.36-2.35,5.64-6.8,9.68-10.86,14-5.81,6.2-11.48,12.53-17.27,18.74-7.26,7.79-10.37,15.6-8.2,27.38,6.24,33.88-8.11,55.57-40.88,65.86-3.15,1-6.18,2.34-10.06,3.84,4.58,2.8,8,.63,11.46.33s7.38-3.68,10.2,1.2a12.82,12.82,0,0,1,.77,12.21c-2.79,6.14-7.46,10.67-14,12-18.27,3.6-36.37,3.73-53.21-5.75-3.6-2-6.67-5.22-9.51-8.32-3.3-3.62-5.56-8.8-3.15-12.91,3.26-5.55,7.15.77,10.81,1.36,6.18,1,12.23,2.85,18.86,3.33-11.55-6.12-22.35-13-31-22.6-10.82-11.93-19-25-16.59-42.27,1.51-11-2.12-20.89-7.29-30.44-2.2-4-4.72-8.77.3-12.58,4.43-3.35,9-1.43,13.06,1.12,9.51,5.91,15.66,14.13,17.09,25.49,1.8,8.08-4.38,13.16-7.46,19.32-3.33,6.66-3.21,11.26,5.1,13.32,5.52,1.37,9.63,5.1,13.63,9,13,12.71,13.61,13.67,29.53,5.05,11.5-6.23,24.15-12.19,30.55-25.1,1.43-2.9,4.46-6,1-9.17-9.56-8.94-17.68-19.78-29.07-26.33-13.51-7.78-17.67-5.34-23.54,10.78C871.13,303.19,867.4,309.16,862.63,301.45Z" transform="translate(-79.76 -25.19)"/><path class="cls-5" d="M617.22,587.05c5-4.8,15.66,1.05,17.72-9.35.51-2,3-4,0-6.05-9.33-6.59-.75-13.21.73-19.15,2.16-8.69,4.21-16.09-5.48-21.19-2.65-2.72-2.45-5.6-.51-8.6C640,517,640,505,645.59,496.39c2-3.13,2.76-7,6.91-8.35,6.91-1.34,11,3,14.91,7.54,2.13,2.42,2.71,6.43,7,6.63-.48,15.26-1.18,30.51-1.35,45.77-.15,13.29-.94,26.44,1.46,39.89,1.82,10.25,1.33,22.28-2.41,31.85-5.49,14-3.81,28-3.92,41.91-.08,9.86-7.21,19.17-.74,30.12,1.69,2.88-4,13.29-7.55,18.43-11.42,16.66-27.54,28.71-48.42,29.51-5.65.21-9.08.78-11.9,4.61-5.71,7.73-16.49,5.6-23.18,12.36,3.35,3.19,7.5,1,10.83,2.32-5.95,2.78-12.21,2-18.45,1.59-.51-1.42,5.65-4.86-.55-4.17-15.08,1.69-29.35.07-42.61-7.44-2.25-1.27-3.48-.46-5.5-.16-15.16,2.25-31,2.14-45.07-2.27-14.71-4.62-31.48,2.18-44.74-9.64-3.15-2.8-8.66-4.34-5.93-8.56,2.24-3.46,9.67-3.58,12.36-.6,6.05,6.71,12.72,4.88,19.45,3.55,9.4-1.86,16.24,5.89,26.16,5.2,15-1,31,7.67,43.56-8.39,1.81-2.3,9.32-.4,14.15,0,3,.27,3.36,7.5,7.46,4.26,4.78-3.78,11.2-7.38,11.73-14,.29-3.66-.66-4.89,3.94-5.06,7-.27,9.61-4.11,11.05-11.76,2.23-11.85,14.64-13.17,24-16.95,1.25-.49,3.1.54,4.68.86-.45-8.57,11.94-8.45,11.44-11.71-1.45-9.31,6.63-11.62,9.34-17.48,2.27-4.92,7-11-3.63-12.3-3.86-.49-2.52-2.75-2.39-5.46.68-13.47,8.55-22.79,17.24-31.78.26-.28.28-.79.42-1.2-1.32-6.3-3.71-11.48-11.21-12.38C620.7,592.75,618,590.86,617.22,587.05Z" transform="translate(-79.76 -25.19)"/><path class="cls-6" d="M729.85,600.52c5.76,1.43,11.72,4.61,17.22,4,15.29-1.83,15.51,6.72,16.09,18.2,3.32,66.49-36,102.8-95.94,120.6,32.92-47.8,25.13-101.23,23-153.46-1.32-32.85-.58-65.39,4.31-97.85,1.08-7.24,3.44-14.08,8-19.91,6.24-8.06,12.41-16.21,19.19-23.8,22.49-25.2,22.78-25.88,13.71-56.65,15.36-.1,30.67.36,45.59-3.48,6.09-1.57,8.47,2.38,10.44,6.83,9.74,22,6.42,43.17-4.74,63.56C779,472.65,769,485.6,763.41,500.88c-3.48,9.54-11.39,6.83-18.25,7.31-5.6-2.42-4.77-6.83-2.25-10.44,5.93-8.45,7.7-18.54,11.92-27.58,3.65-7.81,2.2-9.32-5.88-9-10.09.42-15.8,4.88-16.91,14.93-.89,8.1-6.13,16.58,5.43,22.68,4.82,2.54,3.56,9-2.7,11.83-22.25,13.53-32.08,33.65-30.95,59.31.11,2.51,2.41,4.93,3.69,7.39,2.64,21.07,6,42.1,7.58,63.21.69,9.12-2.63,18.62,1,27.82,16.62-9.19,22.88-24.53,26-41.85,1-5.77-.83-9.34-6.28-12.19C730.69,611.66,725,608,729.85,600.52Z" transform="translate(-79.76 -25.19)"/><path class="cls-7" d="M416.05,906.31c3.74-.4,6.92,3.44,11.22,1.45-3-6-8.87-7.91-14.11-10-9.61-3.79-6.9-7.71-.75-12,5.1-3.54,11.08-5.22,17-3.87,21.05,4.82,36.84,16.81,46.56,36.27,1.93,3.85,2.12,8.23,1.49,12.51-.57,3.82-1.19,8.49-4.73,9.94-4.78,2-5.76-3.81-8.16-6.31-4.71-4.91-9.22-9.93-18.87-14.64,4,6.25,6.11,9.94,8.54,13.43,12.95,18.62,11.76,37.35.78,56.32-6,10.35-13.59,19.5-20.7,29-4.74,6.34-8.9,5.83-15,2-27.08-17.33-46.11-42.56-66.13-66.78-17.34-21-34.28-42.24-54.23-60.9-26.57-24.87-56.52-38.66-93.77-29.2,2.26-26.64,28.93-52.7,57.48-56.58,33.67-4.57,58.25,10.81,78.39,35.74a177.72,177.72,0,0,1,20.65,32.17C373,897.26,383.91,919.76,395,942.21c-3.07,3.73-7.89,3.83-10.14,1-6.52-8.12-19.41-11.85-18.35-25.23.13-1.69-.07-2.45-1.24-2.73-14-3.42-17.86-17.38-25.75-26.54a109,109,0,0,0-52.2-33.85c-7.66-2.34-13.27-12.08-22.45-6.73,2.92.22,6.39-2.44,10.16.21,18.25,12.86,35.69,26.83,50.25,43.72,15.68,18.2,29.08,38.22,45.5,56,9.51,10.31,14.44,24.7,25.69,34.32,4.5,3.84,9.11,7.63,13.37,11.77,11.18,10.88,27.32,6.69,28.91-9.06,1.38-13.68,1.93-27.79-6.07-41.49C425.82,932,419.12,923,405.17,921c-5.52-.77-10.1-3.81-9.11-10.1s6.59-5.6,11.25-5.55C410.23,905.42,413.27,904.71,416.05,906.31Z" transform="translate(-79.76 -25.19)"/><path class="cls-8" d="M599.29,917.7c-6.56,1-9.64-3.89-13.49-7.68-4.9-4.82-4.11-8,2.48-9.69,8.88-2.25,14.72-7.68,18.59-18-7,2.85-10.32,9.55-17.22,9.31-6.58-.23-12.66-.74-15.82-7.79,22.36-9.26,27-17.88,20.13-39.69-2.21-7,1.51-6.14,5.4-5.74,9.44,1,11.63,9.78,16.1,16.7,6.51-16.7,7-16.94,25-12.43,47,11.8,52.9,21.24,44,69.12a219.4,219.4,0,0,1-28.17,74.66c-15.84,25.92-34.07,32.6-63.13,22.68-36.53-12.48-72.49-26.63-108.75-39.91-10.46-3.83-10.65-15.18-7.58-19.82,11.84-17.87,24.67-35.44,45.49-44.8,13.59-6.11,26.05-5.55,38.8,1.93a106.47,106.47,0,0,1,33.53,30.69c.7,4.55,4.72,8.77,1.41,13.75-6,6.17-13.4,4.65-20.1,2.34-17.91-6.17-35.34-5.36-52.75,1.62-2.78,1.12-6.31,1.68-6.62,5-.38,4,3.12,6.1,6.28,7,22.69,6.31,43.15,18.3,65.5,25.42,13.94,6.76,25.4,1.69,37.93-5.52,11.67-6.71,17.61-15.68,21.44-27.78,4.07-12.8,10.36-24.75,16.88-36.51,3.67-15.85,8.14-31.56,5.23-48.18-1.32-7.51-5.59-9.3-12.52-9.24-22.28.19-35.46,10.12-40.2,31.8-1.1,5-5.1,7.68-6.91,11.92C607.58,913.05,605.79,918.27,599.29,917.7Z" transform="translate(-79.76 -25.19)"/><path class="cls-9" d="M416.05,906.31c-5.34,2.43-15.57-2.9-15.75,5.62-.11,5.32,11.15,5.83,16,5.68,8.86-.27,14.35,4,15.14,10.2,1.5,11.74,13.73,17.12,14.49,29.87.33,5.62,4.94,10.36-1.47,15.26-1.77,1.35-1.72,2.67.17,4,9.85,6.87,3.35,11.19-2.12,16.43-7.29,7-11.69,18-25.19,14.8-5.08-1.21-7.62-5-11.25-7.78-21.24-16.09-32.69-40.52-50.58-59.3-14.58-15.31-24.42-34.13-39.34-49-8.56-8.51-17.69-16.53-25.51-25.67-4.07-4.77-10.85-.38-13.08-4.68-6.58-12.69-20.38-8.71-31.71-15.13,11.17-6,21.73-3.2,31.63-1.49A122.84,122.84,0,0,1,334,871.41c10.53,8.65,19,22,27.58,33.82,9.75,13.45,16.84,29.6,33.43,37,1.48,1.33,3.36,2.09,3.33-.74a31.83,31.83,0,0,0-2.51-12.17c-3-7.18-9.2-16.63-4.65-22.17C396.83,900.19,407.49,903.92,416.05,906.31Z" transform="translate(-79.76 -25.19)"/><path class="cls-10" d="M720,309.5c.14-1.68-.23-4.56.49-4.86,15.89-6.69,8.44-20.37,9.58-31.41.51-4.89,21.62-23.44,27-24.4,9.74-1.73,19.63-3.29,28.95-6.43,6.06-2.05,12.52-3.07,16.3.81,4.85,5-.86,9.76-4.09,14.11-1.18,1.59-1.42,3.86-2.09,5.81,4.17,4.74,7.94,9.78,11.73,14.84-.73,6.64-.55,12.71,2.93,19.17,5.58,10.37-1.46,18.35-7.53,26.06-1.18,3.63-2.49,8-6.2,9-12.9,3.3-13.73,12.52-12.44,23.14-3,12-15.24,21-31,22.56-7,.69-14,1.24-20.94,2.28-13.89-3.54-26.4-10.16-38.65-17.36-.63-12.78,1.63-25,9.29-35.38,2.48-3.36-.29-5.53.27-8,1.28-5.72,4.83-8.66,11-7.17,6.46,7.12-.75,17.83,6.52,24.65,6.91,2.86,4.77-5.2,8-6.66,4-7.53,14.33-7.7,18.12-15.49.64-1.87,2-4.06-.11-5.47-4.26-2.89-6.18,2-9.24,3.26-2.39,1.29-4.93,1.12-7.49.76-1.93-.16-3.87-.26-5.79-.55A7.49,7.49,0,0,1,720,309.5Z" transform="translate(-79.76 -25.19)"/><path class="cls-11" d="M201.37,526.17c3.27,1.79,6.46.72,9.66-.24.29-7.42,5.58-11.71,10.2-16.5,7.94-8.22,13.39-17.15,9.47-29.43-1.63-5.11-3.95-7.1-9.07-5.15-4.23,3.52-7.24,8.5-12.65,10.62-12.77,3-25.55,6-36.12-5.48,12.23-14.58,26.58-27.24,41.52-38.54,11.55-8.74,41.47,6.62,45.91,21.3,4.66,15.4.46,29.4-7.45,42.51-5,8.2-10.69,15.93-18.08,26.83,15.71-8.43,23-20.29,31.46-31.12,9.44,14.66,6.46,28.66-9.26,45-18.1,18.86-38.79,24.64-55.44,15.13,7.3-7.21,18.86-9.59,24-22.33-9.95,5.88-17.6,11.67-26.78,14.51-20.83,6.43-39.34,2.73-55.53-12-4.26-3.88-7-7,.53-10.92,8.74-4.49,9.39-13.14,8.94-21.84l1.19-1.3c1.58-.74,4.15-1.39,4.75-.29C168.06,524.23,189.05,515.59,201.37,526.17Z" transform="translate(-79.76 -25.19)"/><path class="cls-2" d="M676.08,293.56c-19.09,11.89-37.41,25.3-58.58,33.3-51.84,19.59-100.25,8.24-146-18.78-14.49-8.55-13.64-10.26-4.24-24.57,5.05-7.68,10.54-15.21,11.79-25.27-46.91,66.25-101.81,114.86-191.15,89.14l.27.24c-4.79-7.64-1.32-12.6,5.35-16.5,12.12.83,24.3,1,36.42,1.9,19.64,1.46,37.77-2.63,54.16-13.76a11,11,0,0,1,5.23-1.74,35.88,35.88,0,0,0,23.87-10.25c14.16-13.85,29.52-26.36,40.91-43.28,8.57-12.71,20.82-23.2,33.94-32,6.59-4.39,13.46-8.75,20.27-.76,5.16,6.06,2.06,20-6,24.58a27.25,27.25,0,0,0-11.79,12.39c-10.24,20.76,1.95,40.42,25.33,39.46,12.69-.52,25.16,2.35,37.39,2.51,14.95.2,30.84,1.71,45.34-3.17,8.25-2.78,16.66-2.19,24.83-4.72,13.22-4.08,21.94-13.86,31.88-22.19,5.06-4.24,9.78-8.58,16.82-4C678.29,280.83,681.4,286.23,676.08,293.56Z" transform="translate(-79.76 -25.19)"/><path class="cls-12" d="M561.56,373.5c-4.73-.61-8.28-12.67-15-.34-1.87,3.43-13.64,6.12-21,.81-7.22-6.79-14.35-13.05-24.49-4.15-1.9,1.66-5.54,1.58-8.47.66-4.11.92-8.25,3.81-11.93-1.25-3-4.1-6.94-3.34-10.83-1.12-9.35-2-18.27-.53-27.21,2.63-4.41,1.57-9.33,5.25-14,0-12.57,5.55-24.24,7.47-34.88-4.69-3.1-3.55,3.39-12.18-6.45-11.16,24-7.82,41-25,57.07-43.13,5.44-6.15,8.43-4.71,11.79.63,7.18,11.45,20.44,15.56,30.87,20.08,22.54,9.76,46.82,16.71,71.92,17.66,6.7.25,13.42-3.22,20.46-2.18,9.82,6.27,19.27-.35,28.92-.71,9-.33,17.21-8.43,26.74-2.56,1.88,3.62,1.58,6-3.31,5.65-9,9.65-21.16,14.12-32.55,19.85-9-7.25-17.23-1.37-25.38,2C569.74,373.89,566.23,378,561.56,373.5Z" transform="translate(-79.76 -25.19)"/><path class="cls-13" d="M798.83,320.61c.29-4.86,5.39-6.22,7-9.06,2.79-4.77,2.82-12.24-2.48-16.39-10.45-8.18-4.49-12,3.35-15.84,4.82-1.52,4.82-1.52,7.09,7a98.52,98.52,0,0,1,10.45,50.48c-.62,12.32,7.09,21.42,14.92,30,2.7,3,6,4.84,4.45,10.61-3.89,14.78.66,23.66,14.19,31.49,9.22,5.32,9.94,11.87,1.27,17.55-12.64,8.28-26.55,13.23-41.87,13.77-5.47.2-9.3-.55-8-7.49,3.37-17.62-.85-33.58-12.24-48.13l16.3-6.88c1-.6,1.44-1.5.56-2.41a2.11,2.11,0,0,0-2.83-.08c-25.87,5.47-51.72,11.16-78.33,4.92,5.44-5.17,13-6.56,19.5-8.24,11.11-2.9,21.34-5.86,28.61-15.29,2.19-3.52,3.76-7.22,7.88-9.5C799.63,341.08,802.45,333,798.83,320.61Z" transform="translate(-79.76 -25.19)"/><path class="cls-14" d="M694.9,881.31a53.48,53.48,0,0,1,6.87,34.1c-4.71,36.94-14.31,72.26-35.57,103.72-7.87,11.64-17.93,17.22-31.67,17.93-25.57,1.32-49.88-4.29-73.33-13.5-27.23-10.7-54-22.56-81.07-33.64-6-2.46-8.63-4.77-5.76-11.95,3.4-8.53,7.7-2.47,10.86-1.25,28.9,11.07,57.56,22.77,86.48,33.79a130.35,130.35,0,0,0,43.56,8.16c20.7.54,35-8.51,43.93-26.55C676.48,957.09,694.17,922.13,694.9,881.31Z" transform="translate(-79.76 -25.19)"/><path class="cls-15" d="M421.27,1031c-6.69,14.35-15.12,12.49-24.56,5.22-16.26-12.53-29.86-27.7-43.22-43.12-27.32-31.54-55.65-62-90.41-85.7-17.36-11.82-35.2-22.5-57.5-20.7-2,.16-4.5,1.32-5.41-1.45s.39-5.08,2.44-6.75c6.88-5.6,15-7.61,23.68-8.11,25.56-1.48,46,9.9,64.47,25.86,23.39,20.17,40.35,45.84,59.48,69.67,9.3,11.59,18.76,23.1,28.8,34C390.83,1012.8,403.7,1024.52,421.27,1031Z" transform="translate(-79.76 -25.19)"/><path class="cls-16" d="M593.21,949.2c-.3-4.09-5.19-8.72,1.41-12L611,951.91c.75-10.84-6-16.32-11-22.53-3.22-4-5.49-7.47-.72-11.69,0-5.63,4.57-8,7.93-11.21,7.69-3,14.58-2.7,20.51,4,5.67,6.46,12.16,7.12,20.45,3.92,12.35-4.76,18.87-.94,21.06,10.38-7.55,18.9-13.07,39-23.53,56.15-5.1,8.34-18.54,12.64-28.31,18.43-12.68,7.49-20.82,3.76-30.41-2.8-2.33-11.53-4.62-23-4.61-34.91C582.39,954.13,591.15,954.68,593.21,949.2Z" transform="translate(-79.76 -25.19)"/><path class="cls-17" d="M872.78,298.53c-3.41-4.92-2.87-14.39-1-14.64,6.86-.94,10.62-8.6,20.51-5.13,11.73,4.11,17.9,12.95,26.61,19.51,6,4.54,9.41,12.53,19.07,12.32,3.4-.07,6.4,3.36,2.45,8.28a218.19,218.19,0,0,1-38.7,37.66c-5.27,4-12.93,5.1-18.51,10-4.13,3.63-7-1.38-9.42-3.7-5.45-5.15-10.2-11-15.61-16.24-1.59-1.53-3.44-4.61-6.26-3.28-8.84,4.18-12.15-4.12-14.18-8.33-2.26-4.68.69-11.28,4.66-16,4.28-5.13,11-8.19,12.91-15.33,2.31,2.86,2.27,6.24,1.68,9.53-.74,4.17,3.79,3.67,4.94,6.08l.66-7.27c4.52-7.88,13.39-8.65,22.47-1.91,7.63,5.66,15.28,11.31,17.49,16-5.76-6.82-14.32-17.15-28.62-20.36C870.8,305,870.12,301.45,872.78,298.53Z" transform="translate(-79.76 -25.19)"/><path class="cls-18" d="M729.85,600.52c1.95,4.52,5.1,6.78,10.18,8.14,12.47,3.32,15,11.52,8,22.67-3.8,6.07-.84,14.27-6.14,19.93-.15.16.35.81.28,1.19-1.4,7.72-23.18,25.56-30.5,26.25-4.5.42-8.28-3.17-7.14-4.34,8.61-8.88-3.7-20.22,4-28.81,2.26-2.52,1.55-6,.42-8.51-6.06-13.3.65-29.24-9.24-42.27-1.65-2.17,1.75-12.94,7.73-17.44C713.33,586.63,717.87,597.16,729.85,600.52Z" transform="translate(-79.76 -25.19)"/><path class="cls-19" d="M145.17,498.23a21.7,21.7,0,0,0,2.4-.25c7.85.45,8.78,4.33,5.19,10.46l-.06.08c-1.77,1-4.13,1.57-5.2,3.07-10.63,14.85-19.26,16.59-34.62,6.71C97,508.11,88.17,488.88,93.14,475.24c1.61-4.4,3.51-9.21,8.23-10.7,5.48-1.72,5.9,4.63,8.79,7.11,4.14,3.56,7.79,7.7,11.66,11.59,1.56,4.44,4.36,8.11,7.22,11.76C133.52,500.7,138.63,502.94,145.17,498.23Z" transform="translate(-79.76 -25.19)"/><path class="cls-20" d="M168.36,462.47c-1.4,7.15-6.74,12.35-9.53,19-3.62,8.62-13.18,5.46-18.74,1.89-15.27-9.81-27.66-22.88-32.53-40.95-4-14.72,6.72-28.53,21.82-29.78,5-.42,9.51.11,10.39,6.42-4.63,12.34-2.13,24.62,1.11,36.6,2,7.18,8.59,7.21,14.72,6.11C160,460.94,164.35,457.65,168.36,462.47Z" transform="translate(-79.76 -25.19)"/><path class="cls-21" d="M734.77,510.63c2.34-5.81,3.52-11.2-5.84-8.51-3.9,1.12-6.8-4.32-11.06-.81,4.47-9.58,6.64-19.45,8.35-29.71s8.66-17.43,20.57-16.61c3.49.24,6.81.6,9.16-2.69,1.69-2.37,2.9-5.51,6.77-2.47,3,2.37,3.88,4.32,2.56,8.5-4.75,14.95-7.1,30.79-17.58,43.4-1.57,1.88-4.09,3.37-2.54,6.46C742,510.35,738.41,510.54,734.77,510.63Z" transform="translate(-79.76 -25.19)"/><path class="cls-22" d="M874.93,416.28c.8,16.74-6.19,31.1-15.29,44.43-23,33.72-53,56.9-95,62.1-25.82,3.19-35.53,13.26-40.91,39.32-.33,1.62-.89,3.2-1.45,5.18-10-20.45,4.3-48.69,25-50.19C812,512.42,854.64,478.43,874.93,416.28Z" transform="translate(-79.76 -25.19)"/><path class="cls-23" d="M209.06,429.1c-5.41,4.18-5.75,12.68-13,15.27-18.81,3-28-10.7-37.64-22.62-5.44-6.74-5.51-15.22.75-22,5.81-6.3,12.85-8.85,21.7-5.17,11.74,4.89,23.66,8.9,28.33,22.75C210.62,421.58,212.13,425.18,209.06,429.1Z" transform="translate(-79.76 -25.19)"/><path class="cls-24" d="M615.56,772.85c-15.29,19.56-31.32,38-48.92,54.79A551.68,551.68,0,0,1,490,888.46c-3.52,2.33-7.42,4.1-11.06,6.27-2.24,1.34-4.31.9-5.59-.94-1.85-2.64.8-3.57,2.48-4.53,50.87-29.21,87.76-74.44,130.07-113.46C608.33,773.52,610.34,770.56,615.56,772.85Z" transform="translate(-79.76 -25.19)"/><path class="cls-25" d="M209.06,429.1c-2.2-5.23-5.09-9.89-6.2-15.93-.88-4.79-2.46-15.22-14-9.54-4.12,2-7.61-6.4-15-5.13-6.58,1.12-12.87,3.25-13.19,8.23-.36,5.55-1.79,12,4.37,18.25,9.12,9.3,18.58,16.27,31,19.39-2.24,1.06-4.4,2.76-6.74,3.06-18.46,2.33-45.27-29.68-39.31-47.3,3.44-10.16,12.62-12.6,21.82-11.33,22.41,3.09,36.9,17.52,48.06,36,1,1.69,2.83,3.34-.12,5.14C215.89,432.31,212.49,431.1,209.06,429.1Z" transform="translate(-79.76 -25.19)"/><path class="cls-26" d="M908.34,417c-2.51,64-26.56,115.84-80.9,151-30.42,19.68-68.31,29.94-81.67,24.28C844.19,576.43,895.62,515,908.34,417Z" transform="translate(-79.76 -25.19)"/><path class="cls-27" d="M168.36,462.47c-17.26,11.2-24.31,10.6-34.14-2.88-9-12.36-6-34.58,5.55-40.57,6.93,18,21.29,28.81,37.44,38.78C175,460.65,172.65,463.12,168.36,462.47Z" transform="translate(-79.76 -25.19)"/><path class="cls-28" d="M221.63,474.85c2.09-2.63,3.81-5.74,6.37-7.77,2.83-2.23,4.69-7.5,10.41-3.23s1.83,6.72-.43,10c-.88,1.3-2,3.67-1.46,4.51,11.33,17.25-3.91,26-11.85,36.89A29.73,29.73,0,0,1,211,525.93c-2.33-3.6-5-7-6.92-10.83-3-5.84-4.4-10.21,4-14.63,6.62-3.5,11-11.53,15.9-17.87C226.31,479.6,223.47,477.14,221.63,474.85Z" transform="translate(-79.76 -25.19)"/><path class="cls-29" d="M152.76,508.44,147.57,498c8.28-3.84,16-4.85,22,4,.87,1.28,2.76,2.93,4,2.78,16.54-2.2,20.32,12,27.84,21.37-3.12,4.67,7.44,4.72,3.37,8.6s-7.22-1.93-8.8-3.93c-6-7.63-13.3-5.7-20.52-3.93-10.59,2.59-14.47-.12-15.5-11.39C159.54,511.37,156.84,509.1,152.76,508.44Z" transform="translate(-79.76 -25.19)"/><path class="cls-30" d="M394.4,756.47c5.25-1.71,8.46.2,11.54,4.67,16.27,23.68,37.13,42.76,60.19,59.68,2.61,1.92,9.78,2.55,5.75,8.75-3.67,5.65-7.39,1-10.6-1.1C434.91,810.91,405.84,779.56,394.4,756.47Z" transform="translate(-79.76 -25.19)"/><path class="cls-31" d="M460.2,882.44l-17.4-9.2C478.66,843.66,504,805.37,537,774.35c-23.41,29-44.57,59.88-71.66,85.56C458.15,866.75,452.9,872.41,460.2,882.44Z" transform="translate(-79.76 -25.19)"/><path class="cls-32" d="M571.62,896.84c-30-21-55.38-11.18-79.28,10.48-1.93,1.75-4.06,6.94-7.56,1.87-2.83-4.11.86-5.91,3.77-7.68,8.32-5,17.9-8.78,24.66-15.41,12.52-12.26,25.14-13.09,41.42-8.55C565.74,880.66,566.16,889.86,571.62,896.84Z" transform="translate(-79.76 -25.19)"/><path class="cls-33" d="M265.12,941.32c-7.57,8.77-19.11,11.75-27.75,19-11.39,2.08-13.72-.1-13.28-12.41l31-25.75C259.86,927.77,271,930.1,265.12,941.32Z" transform="translate(-79.76 -25.19)"/><path class="cls-34" d="M285.73,957.83c-10.28,6.58-18.7,15.93-30.39,20.4-11.54-1.44-12.42-3.89-5.51-15.4,5.31-9.25,14.21-13.84,23.4-18.06C285.46,944.66,287.54,946.83,285.73,957.83Z" transform="translate(-79.76 -25.19)"/><path class="cls-35" d="M313.47,972.9c-11.27,7.54-21.11,17.15-33.43,23.19-8.21.14-15.57-.8-15-11.82a35.61,35.61,0,0,1,26.69-16.39C301.32,959.42,306.72,969.08,313.47,972.9Z" transform="translate(-79.76 -25.19)"/><path class="cls-36" d="M329.5,989.57c-1.82,4.2-6.89,7.84-10.1,7.83-7,0-10.33,4.06-13.17,8.39-7.27,11.07-14.29,3.46-21.21.22-3.48-1.63-1.94-4.25.56-5.67,10.71-6.07,21.74-11.54,30.3-20.87C318.12,977,329.33,985.12,329.5,989.57Z" transform="translate(-79.76 -25.19)"/><path class="cls-37" d="M872.78,298.53c.16,1.25.4,3.6.48,3.59,16.22-1.1,22.31,12.84,31.56,21.7,3,2.86,3.19,3.64,7.47,1.36,3.16-1.69,8.16,3.66,12,7.74-6.14,0-11.67-.86-16.8.23-5.81,1.24-7.94,7.88-13.31,13-.21-9.76,9.27-18.13-3.59-25.88-7-4.22-13.54-9.68-21.48-12.71-4.18-1.59-4.63,2.43-6.46,4.38,0-3.5,0-7,0-10.51C867.78,306.65,868.53,296.48,872.78,298.53Z" transform="translate(-79.76 -25.19)"/><path class="cls-38" d="M261.16,554.9c-12.63,24.75,4.6,37.17,19.08,50.84,6.45,6.09,15.21,9.83,21.4,20.4-12.35-4.25-19.22-11.65-26.59-18a174.17,174.17,0,0,1-16.83-17.31c-5.57-6.37-14.7-13.26-14.61-19.82C243.69,565.54,254.89,560.26,261.16,554.9Z" transform="translate(-79.76 -25.19)"/><path class="cls-39" d="M676.08,293.56c-1.07-5.72-3-11-7.6-14.92,3.18-4.49,7.15-8.64,6.39-14.85.33-2.54,1.38-4.58,3.86-5.64,2.61-1.87,3.66-6.79,7.64-5.61,4.62,1.38,2.77,5.64,3.31,9.25s3.45,6.92,4.73,11.26c4.63,15.66-5.92,17.81-16,21.26A24.16,24.16,0,0,1,676.08,293.56Z" transform="translate(-79.76 -25.19)"/><path class="cls-40" d="M200,926.82c-4.16-8.19-6.59-17.05.31-22.7,8.25-6.75,18.36-2.41,29.16.85-5.8,4.13-10.56,7.41-15.2,10.85S204.92,923,200,926.82Z" transform="translate(-79.76 -25.19)"/><path class="cls-41" d="M813.83,286.3c-2.93-1.75-1.06-8.38-7.09-7-14-3.46-16.11-6.63-10.56-16.18,8-2.84,15.56-4.38,20.33,5.2C813,273.93,813.9,280.19,813.83,286.3Z" transform="translate(-79.76 -25.19)"/><path class="cls-42" d="M316.22,1009.05c4.39-3.35,10.42-3.76,13.87-9.18,5-7.88,8.35-1.54,12.16,2.11,6.73,6.43-1.49,6.46-3.71,8.57-2.66,2.53-6.11,4.2-9.22,6.25C317.79,1019.52,315.8,1018.35,316.22,1009.05Z" transform="translate(-79.76 -25.19)"/><path class="cls-43" d="M221.87,939.9c-4.52,1.86-6.68,13-14,3.76-5.35-6.7-8.63-13.42,2.09-18.48,2.23-1,4.31-2.41,6.46-3.63C229.67,924.25,220.83,933.55,221.87,939.9Z" transform="translate(-79.76 -25.19)"/><path class="cls-44" d="M224.49,914.64c12-8.5,12-8.5,27.15,2.31-2.87,8.46-13.63,3.18-17.4,9.84C224.76,927.74,222.94,922.54,224.49,914.64Z" transform="translate(-79.76 -25.19)"/><path class="cls-45" d="M172.86,480c11.17,2.55,22.11,6.49,33.71.46,3.25-1.69,2.82,2.64,2.41,5-15,10.87-29.26,10.54-36.42-.93A3.73,3.73,0,0,1,172.86,480Z" transform="translate(-79.76 -25.19)"/><path class="cls-46" d="M224.49,914.64l9.75,12.15c-1.56,6.79-8.67,8.34-12.37,13.11-4-5.46-3.79-12.19-5.48-18.35A15.12,15.12,0,0,1,224.49,914.64Z" transform="translate(-79.76 -25.19)"/><path class="cls-47" d="M145.17,498.23c-1.18,7.65-5.34,10.36-11.73,5.54A104.08,104.08,0,0,1,118.27,489c-3.8-4.34,2.39-3.79,3.55-5.79C129.9,487.78,135,496.91,145.17,498.23Z" transform="translate(-79.76 -25.19)"/><path class="cls-48" d="M224.09,947.87c3.61,5,6.72,10.56,13.28,12.41-1.18,4-3.09,9.23-7.71,7.38a22.7,22.7,0,0,1-12.63-13C215.75,951,220.23,948.67,224.09,947.87Z" transform="translate(-79.76 -25.19)"/><path class="cls-49" d="M271.28,546.08c11.38,6.88,22.7,13.25,35.71,16,2.81.6,5,1.53,4,4.87-.84,2.79-3.06,2.29-5.13,1.6C292.33,564.11,280.22,557.45,271.28,546.08Z" transform="translate(-79.76 -25.19)"/><path class="cls-50" d="M539.47,864.8c17.71-.56,32.59,12.19,46.16-3C578.63,877.44,569.53,878.12,539.47,864.8Z" transform="translate(-79.76 -25.19)"/><path class="cls-51" d="M249.83,962.83c-4.12,7.26-2.68,12.54,5.51,15.4,1.5,6.7-.87,9.21-6.9,5.35-4.76-3-10.29-5.59-12.88-11.28Z" transform="translate(-79.76 -25.19)"/><path class="cls-52" d="M265.12,941.32c1.92-9.16-10.74-10.68-10.06-19.2,9.15-1.5,14.41,5.7,18.29,11.09C276.54,937.63,267.87,938.3,265.12,941.32Z" transform="translate(-79.76 -25.19)"/><path class="cls-53" d="M341.46,1018.7c4.14-4.86,7.7-10.63,14.45-2.34,8.08,9.92-4.47,8.54-6.49,12.85C346.23,1026.12,339.83,1025.45,341.46,1018.7Z" transform="translate(-79.76 -25.19)"/><path class="cls-54" d="M285.73,957.83c-1.55-6.86-7.37-9.63-12.5-13.06,8.36-13.08,12.91-.81,17.39,3.32C298.13,955,288,954.78,285.73,957.83Z" transform="translate(-79.76 -25.19)"/><path class="cls-55" d="M265,984.27c2.16,7.56,12.46,4.76,15,11.82-5.19,3.31-21.1-1.31-21.91-6.71C257.39,984.37,262.74,986.05,265,984.27Z" transform="translate(-79.76 -25.19)"/><path class="cls-56" d="M313.47,972.9c-7.49-.61-14-5.51-21.74-5-1.71-5.84,3.6-7.8,6.67-9.65,3.5-2.12,5.46,2.72,7.6,4.95C308.81,966.12,311,969.64,313.47,972.9Z" transform="translate(-79.76 -25.19)"/><path class="cls-57" d="M316.22,1009.05c.22,9.59,9.06,4.61,13.1,7.75-7.83,9.51-14.5,1.31-21.87-.95C309.31,1011.54,312.7,1010.21,316.22,1009.05Z" transform="translate(-79.76 -25.19)"/><path class="cls-58" d="M502,793.62c-11.87-5.12-21.76-12.25-26.68-24.77C484.23,777.19,492.66,786,502,793.62Z" transform="translate(-79.76 -25.19)"/><path class="cls-59" d="M341.46,1018.7c1.71,4.22,7.57,5.29,8,10.51-6.74,2.45-11.78-2.29-18.5-3.51C333.54,1020.64,337.49,1019.66,341.46,1018.7Z" transform="translate(-79.76 -25.19)"/><path class="cls-60" d="M376.64,1037.78l-19.75-4.6C361.9,1022.63,362,1022.64,376.64,1037.78Z" transform="translate(-79.76 -25.19)"/><path class="cls-61" d="M811.06,375.24c-.34-2.05-.7-4.11-1-6.17-.54-3.48.59-6.18,4.44-5.85,4.63.4,5.26,3.66,3.56,7.33-1.2,2.58-1.64,5.78-4.71,7.18Z" transform="translate(-79.76 -25.19)"/><path class="cls-62" d="M680.09,265.81c2.59,10.13-5.31,10.75-11.61,12.83-2-1.53-3.29-.09-4.25,1.2-16.67,22.61-40,32.13-67.11,34.29-17.55,1.4-35.3,6-52.6,1.41-11.37-3-21.52.32-32.26.79-16.06.7-23.56-12.83-32.33-22.91-6.87-7.89-.81-17.14,2.76-24.27,3.93-7.85,4.56-19.56,18.62-20.06,4.17-.16,3.87-11.23,2.43-15.1-2.27-6.08-6.82-.06-9.88,1.94-19.15,12.53-32.28,31-47.14,47.81a289.38,289.38,0,0,1-29.8,29.42,42,42,0,0,1-26.71,10.3c-2.71-3.93-1.77-8-.6-12.15.74-2.61.14-5.26-2.86-6.13A6.67,6.67,0,0,0,379,308c-2.06,3.12.9,4.43,2.75,5.93,3,2.47,6.21,4.79,3.57,9.39,1,3.63-1.68,6.16-3.94,7.14-19.51,8.48-39.76,12.11-61.1,8.94-8.6-1.28-18.26,1.8-24.67-7-.14-2,0-4-.3-6-2.32-7.62.59-12.86,8.32-13.19,6.52-.29,11.53-.52,17.08-5.59,3.44-3.15,2.27,4,4,8,8.86-15.13,27.44-20.92,31.57-39.33.75-3.37,3.93-3.52,7.94-3.16,4.18.37,6.28-.81,4.95,4.73-.27,1.12,3.17,3.46,5.25,4.57.56.3,3.64-2.05,3.53-2.9-1.91-14,12.24-17.23,17.37-26.4,1.87-3.34,8.68-3.54,6.47-9.21-2.13-5.45-7.74.62-11.53-2.93,5.78-7.39,14.05-5.71,21.42-6.7-10.28-9.78-10.28-9.78-5.4-14.48,3.76-4.4,4.47-10.72,9.12-14.57,3.27-6.23,11.28-9.28,10.9-18.67-.08-1.9,15-8.12,17.94-5.81,12.48,9.92,15.49-3.28,22.26-7.05,2.64,1.95,5.54,3.59,7.06,6.77,1.06,2.23,2.37,5,5.42,3,2.51-1.61,1.93-4.46.7-6.69-2.25-4.09-3.65-8.26-2.76-13,7.68-11.31,19.25-18.89,28-29.14,2.89-3.37,5.57-2.51,8.71,0,4.17,3.31,1.83,5.67-.58,8.32-5.08,5.58-10.1,11.23-15.22,16.79-1.37,1.49-3.64,2.5-1.4,5,1.13,1.24,3.47,3.27,3.87,2.11,3.09-8.95,16.47-1.15,18.86-11.9.38-1.71,6.94-5.46,11.13-2.64,3.95,2.66,9.54,5.38,7.82,11.45-.82,2.88-1.4,4.53,1.08,6.41,3.79,2.9,5.56-1.13,7.24-2.67,8.76-8.06,16.73-15.91,28.92-20.38,11.89-4.35,21.86,1.81,32.92.35,7.59-1,17.07-4.1,24.33,3,1.59,1.56,3.32,1,4.45-.39,7.5-9,10,0,13.9,3.79l.33,0c-1.16-5.23.46-10.7,5.64-10.52,5,.18,11.69,1.86,14.27,7.3,3.19,6.7,6,10.7,14.95,11.3,12.1.82,7,13.62,9.89,20.86,1.65,4.15,0,9.59-.12,14.44,0,1.21-.22,2.41-.34,3.61-15-1.56-10.22,15.5-19.47,20.66-8.93,5-15.86,13.9-22.94,21.74-3.89,4.32-10.34,7.84-7.78,16,.82,2.61-4.19,5.9-.27,9.05,4.37,3.51,6-4.08,10-2.59C663.46,262,671.78,260.29,680.09,265.81Z" transform="translate(-79.76 -25.19)"/><path class="cls-63" d="M476.93,163.88c2.26,2.42,4.48,4.87,6.78,7.25,8.12,8.36,6.45,17.66-4.15,22.92-4.05,2-12.85-4.79-13.27-10.5a94.42,94.42,0,0,1,.22-9.8Z" transform="translate(-79.76 -25.19)"/><path class="cls-64" d="M268.14,276.43c7.71.1,12.13,3.61,12,10.73s-4.47,12.4-11.52,13-10.71-4.32-11.14-11.14C257,281.21,261.61,277.62,268.14,276.43Z" transform="translate(-79.76 -25.19)"/><path class="cls-65" d="M347.22,148.28c-.45,6.11-3,11.43-10,12.35-6.17.81-9.78-3.08-9.52-9.08.29-6.86,3.28-12.63,11.17-12.89C344.65,138.48,346.87,142.59,347.22,148.28Z" transform="translate(-79.76 -25.19)"/><path class="cls-66" d="M680.09,265.81c-8.33,3.81-16.65,6.11-25-.05,1-1.77,2.19-3.48,3.09-5.31,6.12-12.45,10.78-13,20.51-2.3C679.18,260.71,679.64,263.26,680.09,265.81Z" transform="translate(-79.76 -25.19)"/><path class="cls-67" d="M295.28,326.44c2.21,1.9,2,3.92.3,6l-7.42,15.17a64.76,64.76,0,0,1-8.17-3c-4.36-2.27-7.46-5.72-5.77-11,1.58-5,5.43-7.49,10.63-6.54C288.48,327.7,291.94,329.36,295.28,326.44Z" transform="translate(-79.76 -25.19)"/><path class="cls-68" d="M429.9,148.78c-1.35,5.34-4.53,8.29-9.93,7.76s-8.28-4-7.62-9.44,4.4-8.24,9.62-7.69S429.87,143.6,429.9,148.78Z" transform="translate(-79.76 -25.19)"/><path class="cls-69" d="M674,110.53c-.7,5-3.48,8.59-8.88,8.23-5-.33-8.81-3.24-8.44-8.89.34-5.33,3.86-8.48,9.06-8.42S674.06,104.67,674,110.53Z" transform="translate(-79.76 -25.19)"/><path class="cls-70" d="M720,309.5l5.44-.16c6.22,17.87,3.85,25.88-9,30.44-11.45-8.5-1.94-18.33-1.76-27.58C716.73,311.86,719,312,720,309.5Z" transform="translate(-79.76 -25.19)"/><path class="cls-71" d="M578.28,98.75c4.84.2,7.63,2.32,7.78,7,.14,4-2.31,6.49-6,7-4.36.55-7.68-1.56-8.11-6.11S574.36,99.63,578.28,98.75Z" transform="translate(-79.76 -25.19)"/><path class="cls-72" d="M415.41,205.28c4,3.7-.2,8,.41,12.27,1,6.81-5.61,3.54-9.53,2.3C404.58,212,403.94,204.87,415.41,205.28Z" transform="translate(-79.76 -25.19)"/><path class="cls-73" d="M362.28,260.86c-7.21-7.11-2-10.29,4.15-13.2,4.58-1.28,6.2.8,5.82,5.14-2.12,4.24-4.95,7.55-10.11,7.88Z" transform="translate(-79.76 -25.19)"/><path class="cls-74" d="M322.83,293.84c2.69-5.42-4.6-13.63,4.12-16.58,3.23-1.09,6.52,2.91,6.59,4.22C333.92,288.29,327.1,289.94,322.83,293.84Z" transform="translate(-79.76 -25.19)"/><path class="cls-75" d="M700.36,211c1.75,2.48,6.35,3.4,5.68,7.09-.47,2.58-3.86,4.67-6.68,4.34-2.6-.31-6.15-1.91-4.93-5.6C695.24,214.39,696.57,211.33,700.36,211Z" transform="translate(-79.76 -25.19)"/><path class="cls-76" d="M372.25,252.8l-5.82-5.14a8.6,8.6,0,0,1,1-2.29c3.06-3.58,7.1-7.81,11-2.67C383.59,249.41,375.41,250,372.25,252.8Z" transform="translate(-79.76 -25.19)"/><path class="cls-77" d="M346.36,220c2.86-.1,5,1.28,5.31,4,.41,3.28-1.56,5.46-4.8,6-2.89.47-4.77-1.15-5.09-4C341.41,222.77,342.89,220.54,346.36,220Z" transform="translate(-79.76 -25.19)"/><path class="cls-73" d="M362.14,260.68c-2.55,5.37-7.72,3.5-12.32,5.06,4.23-8,4.23-8,12.46-4.88Z" transform="translate(-79.76 -25.19)"/><path class="cls-78" d="M503.12,501.05c-1.88,19.22-9.49,36.1-21.65,50.84-4.86,5.89-6.4,9.41,2.54,12.29,5.93,1.91,11.41,5.23,17.23,8,3.74-5.95-1.13-12.83,4.09-19.56,3.09,12.35,5.87,23.45,9.28,37.11-14.17-6.8-26-12.85-38.18-18.18-6.76-3-15.6-8.61-20.84-.85-4.4,6.52,3.52,13,7.6,18.61,1.85,2.57,4.95,4.24,6.63,7.34-8.43-.17-15.36-3.64-19.27-10.11-4.18-6.93-9.1-9.15-17-10.36-21.76-3.33-33.56-18.69-40-38.36-9.69-29.38-5-57.9,6.7-85.73,1.47-3.49,3.34-6.81,5.28-10.72-6.69-2.53-10.92,4.46-16.68,3.43-.19-.87-.71-2.12-.47-2.29,17.95-12.55,35.58-25.89,55.8-34.4,12.55-5.28,26.26-1.71,36,6.88,11.43,10,23.35,19.43,34.91,29.27a13.53,13.53,0,0,1,5.25,10.09l-20.26-13.68c3,18,6.2,33.67,4.74,49.74C504.51,494,505.15,497.73,503.12,501.05Z" transform="translate(-79.76 -25.19)"/><path class="cls-78" d="M632.7,523.63c-2.06,2.16-2.5,4.85-2.51,7.68-7.89,12.54-15.31,25.37-27.45,34.6C579,584,550.27,579.07,535.46,553.06c-18.85-33.08-14.14-66.87-.56-100.4,1.43-3.52,3.34-6.84,5-10.27.16-.32,0-.77,0-1.73-6-1.22-10.33,4.64-16.56,4.64.18-1.68-.12-3.45.47-3.82,17.81-11.16,35-23.67,53.8-32.74,14.39-6.93,30.06-2.19,41.08,9.05,9.89,10.09,21.65,17.46,32,26.68,10.33,4.7,10.58,5.85,2.74,12.63-6.53-.83-10.61.09-8.47,8.58,4.79,18.94-1.53,36.47-7.88,53.88A5.76,5.76,0,0,1,632.7,523.63Z" transform="translate(-79.76 -25.19)"/><path class="cls-79" d="M617.22,587.05c5.2.4,10.82-1.39,15.27,2.94,4.63,4.51,6.86,9.46,2.84,15.55-5.27-6.45-7.68-4.09-10.9,2.4-11.68,23.6-23.53,47.28-42.9,65.81-30.24,28.92-66.78,42.59-108.36,43.57-11.12.26-16-3.69-11.65-15.36a39.29,39.29,0,0,0,1.85-17.61c-2-20.29-3.53-21.89-23.44-25.27-4.41-.74-9.43-.51-13.16-7.07,68-1.72,132.89-11.77,189.71-55l-7.93-2.87C610.25,590.09,613.49,588.26,617.22,587.05Z" transform="translate(-79.76 -25.19)"/><path class="cls-80" d="M653.28,454.69c7.09-5.38-3.22-6.43-2.55-10.22,3.62-6.31-.28-14.32,4.61-20.34,2.95-2.88,1.51-6.24,1-9.46a21.37,21.37,0,0,1,1.81-13.57c3.31-6.4,6.78-13.92,15.61-12.25,8.23,1.56,13.07,7.36,12.64,16.41-.27,3.76,1.21,7.49.15,11.29-.81,2.91-1.65,6.07,2.43,7.17,2.52.68,5.29.43,6.64-2.21,1.6-3.12,2.07-6.78-.39-9.48-2.7-2.95-7.87-3.5-8.52-8.61.75-6.87,3.38-11,11.09-7.49,5.61,1.51,8.27,8.22,16.18,7,4.75-.74,7.33,13.9,3,19.4a92.54,92.54,0,0,1-10.62,10.8c-12,11-15.52,27-24.13,39.7-6.54,9.66-1.28,20.82-7.87,29.4-5.17,3.89-8-.14-11.32-3.17s-6.74-5.82-10.12-8.72C651.36,478.43,641.43,466.45,653.28,454.69Z" transform="translate(-79.76 -25.19)"/><path class="cls-81" d="M683.53,405.53c-1.74-4.42-5.55-7.07-8.7-10.3-2.63-2.69-5.07-3.35-6.72.52-2.36,5.5-6,11.27-5.87,16.82.21,6.35-2.55,8.94-6.9,11.56-2.81-8.05-11.24-14.1-7.06-24.76,1.4-3.59-5-5.54-8.13-8,2-7.14,8.42-9.51,13.88-12.93,7.85-5.21,16.09-4.85,24.51-1.73a49.75,49.75,0,0,1,19.23,19.22c-5.64,1-7.92,4.88-8.8,10,.32,1.25.34,2.73-1.09,2.94C685.51,409.25,684.11,407.79,683.53,405.53Z" transform="translate(-79.76 -25.19)"/><path class="cls-82" d="M373.05,494.54c0,11.89-8.17,24.41-16.37,24.28-9-.14-12.59-6.06-12.48-14.36.13-9.75,11.51-21.69,20.27-21.41C371.93,483.28,373.2,488.46,373.05,494.54Z" transform="translate(-79.76 -25.19)"/><path class="cls-83" d="M428.68,370.78c13.37-6.35,26.61-14.71,41.17-2.67-20.29,5.27-39.76,12.26-57,29.77C413.82,383.85,424.16,379,428.68,370.78Z" transform="translate(-79.76 -25.19)"/><path class="cls-84" d="M561.56,373.5c10.25-6.07,19.33-14.87,33.17-11.33,5.81,1.49,7.49,2.95,4.53,8.05-9.18,1.9-18.25,4.28-26.35,9.13s-15.67,10-24.22,15.57C548,384.47,557.77,380.68,561.56,373.5Z" transform="translate(-79.76 -25.19)"/><path class="cls-85" d="M492.61,370.48c4.36-3.85,8.48-8,13.14-11.47,8.45-6.26,14.83-3.22,16.47,7.19.42,2.7,2.2,5.18,3.35,7.76-1.23.09-2.72-.26-3.67.3C505.81,383.9,505.83,383.92,492.61,370.48Z" transform="translate(-79.76 -25.19)"/><path class="cls-86" d="M384.5,630.12c.47,8.54-8.42,18.84-15.35,18.87-6.14,0-9.6-3.44-9.27-9.45.55-9.53,7.27-13.9,15.55-15.78C381,622.5,384,625.84,384.5,630.12Z" transform="translate(-79.76 -25.19)"/><path class="cls-87" d="M657.57,382.72c-3.72,7.11-10.87,7.27-17.42,8.65-10.23-4.13-9.8-11-3.57-17.84,3.83-4.23,9.26-7,14-10.45C659.16,367.39,663.46,373.24,657.57,382.72Z" transform="translate(-79.76 -25.19)"/><path class="cls-88" d="M375.18,435.16c-.35,7.57-5.76,10.49-12.56,11-5.71.41-10.33-2.34-9.75-8.76.61-6.79,4.08-12.27,11.77-12.55C371,424.6,375,427.83,375.18,435.16Z" transform="translate(-79.76 -25.19)"/><path class="cls-89" d="M418.54,686.25c-.93,7-4.35,12.3-11.49,13.23s-9.5-4.4-9.69-10.46c-.25-7.6,3.67-12,11.39-12.12C414.73,676.84,418,680.21,418.54,686.25Z" transform="translate(-79.76 -25.19)"/><path class="cls-90" d="M657.57,382.72c2-8.11-4.87-13-7-19.64,12.06-1.06,20.73,4.85,28,13.64-2.65,8.6-11,4.28-13.79,3.23C660,378.15,660.23,383.21,657.57,382.72Z" transform="translate(-79.76 -25.19)"/><path class="cls-91" d="M471.61,628.56c-1.15,5.29-4.11,9.4-9.92,9.16-5.5-.23-9.73-3.66-9.4-9.58.3-5.48,3.72-9.49,9.72-9.33C467.84,619,470.92,622.63,471.61,628.56Z" transform="translate(-79.76 -25.19)"/><path class="cls-92" d="M503.12,501.05c-.6-3.73-.59-7.37,1.67-10.66,2.74,1.51,4.67-1.14,7.07-1.37,4.93-.48,7.11,2.69,7.19,6.75.09,4.78-2.61,7.84-7.9,7.49C508.34,503.07,506.49,499.28,503.12,501.05Z" transform="translate(-79.76 -25.19)"/><path class="cls-93" d="M535.59,408.54c-.92,4.32-3.57,6.94-8,6.41s-6.67-3.65-6.16-8.09c.46-3.95,3.25-5.93,7.1-5.73C533,401.37,535.39,404,535.59,408.54Z" transform="translate(-79.76 -25.19)"/><path class="cls-94" d="M357.54,393.17c-.2,4.32-2.4,7.1-7,6.9-3.94-.17-6.08-2.87-6-6.7.05-4.5,2.82-7,7.2-7S357.39,389.2,357.54,393.17Z" transform="translate(-79.76 -25.19)"/><path class="cls-95" d="M634.94,571.65c.27-.32.47-.74.81-.94,3.07-1.79,5-7.71,9.8-3.17,1.18,1.12,5.73,2.07,2,5.35s-6,9.58-12.61,4.81c-1.37-.43-4,.33-3.65-1.82C631.53,574.32,633.65,573.05,634.94,571.65Z" transform="translate(-79.76 -25.19)"/><path class="cls-96" d="M615.17,383.54c-.39,4-2.12,7.35-6.9,7-3.91-.29-5.89-3.09-5.6-7s2.65-6.43,6.39-6.65C613.12,376.64,615,379.4,615.17,383.54Z" transform="translate(-79.76 -25.19)"/><path class="cls-97" d="M339.29,617.74c-.38,4-2.69,6-6.65,5.64s-6.18-2.65-5.87-6.6,2.82-6,6.72-5.78S339.24,613.86,339.29,617.74Z" transform="translate(-79.76 -25.19)"/><path class="cls-98" d="M590.21,596.5c-.51,3.44-2.15,5.85-5.58,5.9s-5.38-2.37-5.36-5.66,1.86-5.77,5.36-5.7C588,591.1,589.81,593.34,590.21,596.5Z" transform="translate(-79.76 -25.19)"/><path class="cls-99" d="M631.81,350.37l3.31-5.65c6.42-.4,8.53,4.2,10,9.06a2.77,2.77,0,0,1-2.83,3.35C637.91,356.5,633.16,355.94,631.81,350.37Z" transform="translate(-79.76 -25.19)"/><path class="cls-100" d="M653.28,454.69c-2.52,11.86,10,23.86-.36,35.63C651,504,638.62,513.61,638,528.09c-.07,1.48-4.28-1.75-5.29-4.46,9.65-26.54,8.76-53.53,1.89-82.15C642.82,445.35,648.71,449.06,653.28,454.69Z" transform="translate(-79.76 -25.19)"/><path class="cls-101" d="M663.31,631.11c-1.12,5.55,1.34,12-4.76,15.12-4.47,2.29-6.18,12.1-13.94,5.8-5.82-4.74-10.73-8.13-7.32-18.95,2.34-7.4,9.62-9.7,10.39-16.63,3.75,2.11,8-.86,11.38.61C665.7,620,660.77,627,663.31,631.11Z" transform="translate(-79.76 -25.19)"/><path class="cls-102" d="M607.4,705.49c-3.41,3.53-5.29,10.25-10.32,9.7-3.43-.37-8.52-5.88-8.82-9.42-.38-4.67,4.32-10.12,9.45-9.79C601.76,696.25,605.11,701,607.4,705.49Z" transform="translate(-79.76 -25.19)"/><path class="cls-102" d="M578.45,713.51a18.33,18.33,0,0,1,9.37,10.21c.39,1-3,5-4.55,4.94-5.1-.27-6.88-5.35-9.2-9C573.56,718.89,576.91,715.6,578.45,713.51Z" transform="translate(-79.76 -25.19)"/><path class="cls-103" d="M639,720.53c-2-2.34-4.88-4.21-4.8-5.95s2.94-3.58,4.58-5.37c1.83,1.94,4.44,3.63,5.14,5.91C644.21,716.22,641,718.43,639,720.53Z" transform="translate(-79.76 -25.19)"/><path class="cls-104" d="M785.53,427.72c-.58,3.89-2.36,7.2-6.92,7.32-3.64.09-5-2.83-5.18-6-.29-4.54,1.87-7.27,6.63-7.2C783.59,421.92,785.34,424,785.53,427.72Z" transform="translate(-79.76 -25.19)"/><path class="cls-105" d="M669.24,924.83c-5.17-9.23-13.49-6.49-20-3.65-9.18,4-17.36,5-23-3.91-4.72-7.46-13.83-5.23-19-10.79.94-3.61,3.11-6.61,3.43-10.71,1.31-16.6,16.3-32.12,33.1-37,7.71-2.25,15.34-1.4,22.43-.41,11.18,1.56,14.22,13.84,13.35,21.29C677.76,894.78,677.28,910.85,669.24,924.83Z" transform="translate(-79.76 -25.19)"/><path class="cls-106" d="M593.21,949.2c4.93,1.66,5.48,5.1.74,6.42-12,3.35-3,11.71-4.89,17.35-2.56,7.63,5.73,4.81,8,7.88-2.9,5.64-10.27,8.3-10.06,15.76-8.57,5-14.45-3.54-21.16-5.5-15.21-4.47-28.9-13.76-44.87-17.12-6.29-1.32-9.17-10-18.57-7.74,12.69-24.53,35-22.31,55.65-24.69,8.35-1,13.89,4.65,21,6.39C583.83,949.13,588.32,950.52,593.21,949.2Z" transform="translate(-79.76 -25.19)"/><path class="cls-107" d="M798.83,320.61c6.5,3.52,6,8.39,6.9,15.47,1.89,14.22-1.93,17.23-14.5,16.52-3.37-.19-6.92,2.6-10.39,4-5.22-18.3-4.26-20.6,12.85-27.94C797.57,327,797,323.21,798.83,320.61Z" transform="translate(-79.76 -25.19)"/><path class="cls-108" d="M749.7,287.39c-4.68-1-7.27-3.57-8.24-7.47a11,11,0,0,1,6.21-12.57c8.19-3.73,18.14-2.94,24.65-11.41,2-2.63,5.09,1.44,5.64,4.2C778.44,262.57,751.58,287.38,749.7,287.39Z" transform="translate(-79.76 -25.19)"/><path class="cls-109" d="M716.43,339.78c5.9-6.71,8.74-14.23,5.78-23.13-1.17-3.53,3.58-4.26,3.25-7.31l3.93-.09c10,6.55,3,15.24,2.88,23.05-4,3.95.3,9.49-2.73,13.76-2.15,3-4.47,7-8,6.25-2.72-.54-4.66-4.29-3.21-8.27C718.67,343,717.1,341.22,716.43,339.78Z" transform="translate(-79.76 -25.19)"/><path class="cls-110" d="M732.27,332.3c-5-7.18-3.07-15.22-2.88-23.05l8.46-.72c7.71-4.92,11.19.61,14.74,6-2.29,8-5,15.43-15.9,13.89C735.43,328.21,733.75,330.93,732.27,332.3Z" transform="translate(-79.76 -25.19)"/><path class="cls-111" d="M752.59,314.5c-6.92,3-8.2-8-14.74-6,.09-2.61-7.9-9,4-5.88C749.73,304.7,756.27,303.63,752.59,314.5Z" transform="translate(-79.76 -25.19)"/><path class="cls-112" d="M782.8,282.86c2.69.7,5.89,2.49,4.92,4.68-1.8,4-4.79,8-9.3,9.37-1.11.33-5-3.38-4.73-4.74C774.53,287.35,779.37,285.64,782.8,282.86Z" transform="translate(-79.76 -25.19)"/><path class="cls-113" d="M385.29,323.36C376,320.53,370.51,313,363.75,305.5c5.6,3.38,9.56,1.55,11.73-3.14,3.58-7.74,11.21-4.42,16.76-6.15,4.46-1.39,7.91,11.16,4.38,16.76-2.19,3.47-6.48,5.63-6.41,10.49Z" transform="translate(-79.76 -25.19)"/><path class="cls-114" d="M470,343.3c-2.62,1.78-4.52,4.06-6.59,4.22a5.48,5.48,0,0,1-5.73-4.89c-.12-2.35,2.46-5.07,4.87-4.81C464.63,338,466.45,340.54,470,343.3Z" transform="translate(-79.76 -25.19)"/><path class="cls-115" d="M823.11,409.07c-4.2,0-6.58-2.11-6.63-6.15-.05-3.29,1.73-5.77,5.15-6.2,4-.51,6.57,1.69,7.13,5.54C829.37,406.4,826.87,408.45,823.11,409.07Z" transform="translate(-79.76 -25.19)"/><path class="cls-116" d="M824.06,422.52c2.81-.3,4.21,1.09,4.48,3.45s-1.21,4-3.53,4.38-4.07-1.09-4.38-3.43C820.3,424.38,822.21,423.29,824.06,422.52Z" transform="translate(-79.76 -25.19)"/><path class="cls-117" d="M837.17,416.67c-1.76-.11-3.37-.66-3.48-2.65-.14-2.46,1.35-4,3.72-3.6,1.33.23,3.28,1.52,3.5,2.61C841.39,415.48,839.44,416.48,837.17,416.67Z" transform="translate(-79.76 -25.19)"/><path class="cls-118" d="M887,343.58c-2.28,1.66-4.59,4.65-6.73,4.53-1.87-.11-6.1-2.16-4.87-5.95.72-2.19,2.68-5,5.41-4.53S885.66,340.52,887,343.58Z" transform="translate(-79.76 -25.19)"/><path class="cls-119" d="M510.28,288.86c2.05-3.16,4.29-4.8,2.5-10.46-3.81-12.13,6.38-21.2,19.72-19.26,4.53.66,7.12,5.49,9.74,9.29-6.92,4.33-1.51,16.79-11.91,18.55-6.63,1.12-13.42,1.24-20.13,1.81Z" transform="translate(-79.76 -25.19)"/><path class="cls-120" d="M617.52,172.94c-2.17,5.53.06,11.87-4.63,17.22-5.47,6.24-13.11,7.05-17.69,3.54C589,189,591.11,181,596.26,175.15c3-3.39,6.43-6.65,11.39-7.22C613.37,164.81,614.8,170.15,617.52,172.94Z" transform="translate(-79.76 -25.19)"/><path class="cls-121" d="M617.52,172.94l-9.87-5c0-3.3-4.16-7.92,1.55-9.47,4.41-1.19,10.34-4,13.85.32C628.6,165.6,617.47,167.38,617.52,172.94Z" transform="translate(-79.76 -25.19)"/><path class="cls-122" d="M510.2,288.79l4.17,7.42c-10.77,1.05-18.53-3.39-23.56-12.85,7.53-1.83,13.61,1.46,19.47,5.5Z" transform="translate(-79.76 -25.19)"/><path class="cls-123" d="M450.24,203c-2.44,2.43-3.52,6.2-6.86,5.15-1.93-.6-4.69-3.71-4.39-5.14.49-2.34,2.41-5.83,5.92-4.71C446.94,198.91,448.42,201.28,450.24,203Z" transform="translate(-79.76 -25.19)"/><path class="cls-124" d="M651.32,154c3.57-.49,7.25-6,12.88,4.28-5.88-4.07-9.71,4.81-13.21-4.26Z" transform="translate(-79.76 -25.19)"/><path class="cls-125" d="M421.17,560.35c-9.7-6.36-15.3-15.76-18.69-26.35-10-31-6.91-61,8.2-89.83,3.15-6,7.47-9.44,14.63-10.56,11.13-1.76,22.1-3.65,33.42-2-.16,1.2-.08,1.86-.28,1.95-27.19,13.18-27.17,13.17-10.18,36.56,2.09,2.87,3.85,6,7.06,11-9.48-4.27-16.73-7.36-23.82-10.79-6.05-2.92-9.88-2.2-12.22,4.87C409.86,503.72,405,532,421.17,560.35Z" transform="translate(-79.76 -25.19)"/><path class="cls-126" d="M475.8,422.08c-15.43-1-28.69-3.3-44.33.34C447.66,408.89,460.9,408.81,475.8,422.08Z" transform="translate(-79.76 -25.19)"/><path class="cls-127" d="M595.73,431.7a29.42,29.42,0,0,1-2.8,2.24c-25.76,11.17-26.48,13.63-10.39,35.58,2.24,3.06,4.43,6.16,8.51,11.82-10-4.45-17.34-7.63-24.61-11-6.08-2.86-10-2.05-12.28,5-9.22,28.52-14.51,56.83,3.08,85-10.4-6.2-17-15.23-21.13-29.88-7.83-27.62-5.35-54.44,6.31-80.68,4.52-10.19,11.19-16.49,22.57-17.44C574.6,431.57,584.18,429.9,595.73,431.7Z" transform="translate(-79.76 -25.19)"/><path class="cls-128" d="M609.53,422.25c-14.32-1.35-27.57-3.38-42.32,0C581.7,408.64,597.19,408.74,609.53,422.25Z" transform="translate(-79.76 -25.19)"/><path class="cls-129" d="M590.94,621.76c-.93,8-1.13,13-2.22,17.93s-2.14,11-9.7,5c-3.74-3-7.28.84-10.45,2.39-22,10.75-45.28,16.84-69.56,19.26a46.55,46.55,0,0,1-10.15-.11,4.93,4.93,0,0,1-4.61-5.23c.18-2.92,3.06-2.11,4.95-2.36C525,654,558.65,643.23,590.94,621.76Z" transform="translate(-79.76 -25.19)"/><path class="cls-130" d="M508.45,687.31l-5.07,9.19c14.42-12.79,29.85-21.47,52.14-15.06C532.38,696.13,508.73,704,481.92,708,487,695.68,495.88,691,508.45,687.31Z" transform="translate(-79.76 -25.19)"/><path class="cls-131" d="M683.53,405.53c1.78.5,3.49,2.05,5.44.42,5.08-2.61,8.91-2.38,13.1,2.65s0,10.39,2.28,15.13c-4.44,1.79-4.91,9.16-12.41,7.44-4.75-1.09-9.7.6-13.22-4.84-2.19-3.4-5.33-6.5-.09-8.63C685.15,415.05,676.62,407.34,683.53,405.53Z" transform="translate(-79.76 -25.19)"/><path class="cls-1" d="M599.79,592c-18.17-14.15-51.38-20.34-66.6-17.57-21.78,3.28-42.19,29.24-50.72,30.93s-20.45-13.68-33.91-2.66C437,612.84,426,639,429.62,646.65s10.91,18.18,13.83,14.47,12.34-3.49,12.34-3.49,14.42-1.27,15.16-2.49c24.59-2.27,29.41-6.88,35.13-9.58S524.93,649.4,544,637c8.53-1.69,15.15-2.48,27.61-10.69,5.41-5.75,24.22-6.41,35-4.86,7.78,1.11,9.86-2.17,7.74-8.32C611.1,603.52,607.73,598.21,599.79,592Z" transform="translate(-79.76 -25.19)"/><path class="cls-18" d="M543.46,630.35c-2.87,7.4-10.9,8.77-16.15,9-8,.32-17.15,5.22-24.74-2.48-1.11-1.12-3.11,1.6-2.65,3.27,1.88,6.81-4.86,6.36-7.42,7.3-3.09,1.13-3.71-4-4.89-6.61-1.53-3.37-2.24-7.12-3.42-11.1-2,3.49.05,6.43-.13,9.3s3.41,5.64-.7,8.94c-9,7.2-12.47,2.55-15.9-5.63-2-4.89-.45-11.57-6.67-14.53a4.71,4.71,0,0,1-3.22-2.93,25,25,0,0,1-.83-11.21c.37-2.42,1.13-4.93,3.79-5.66,3.38-.93,3.54,2.09,4.7,4.11,1.73,3,4.5,2,9.85-3.62,3.73,3.49,6.39,3.39,12,1.28,9-3.42,11.66-13.52,20.54-16,3.68-.52,7.14,3.09,10.84-3.61,2.92-5.29,11.28-.07,16.57,3.39.85.55,1.28,2,2.18,2.07,1.53.09-.37-1.38.52-1.83-1.92-3.09,6.8,1.34,2.6-3.88-3.75-4.66-.41-6.91,4-7.8,3.87-.79,7.6.38,11.27,1.57a48.78,48.78,0,0,0,16.76,2.48c8.35-.15,16.39,5.84,21.7,13.53a7.6,7.6,0,0,0-.6,1.94c-.15,4.5,8.92,9.28,4.57,10.46-7.22,2-13.91,7.14-21.83,6-2.63-.37-2.8-3.73-3.8-5.84-2.4-5.11-5-9.91-10.73-12.14-1.46,2.3.77,2.91,1.7,4,8.79,10,10.16,15.73,3.95,17-4.59.9-5.85,8.6-12.4,6.36-2.59-.89-2.68,1.08-2.4,3-6.9,5.35-7.65-2.67-8.65-5.14-2.23-5.51-5.65-10.3-8-15.68-1.46-3.38-3.46-6.42-6.94-8-1.54-.38-1,1.8-.62.44.17-.64.54-.8,1-.35C537,609.78,543.11,618.63,543.46,630.35Z" transform="translate(-79.76 -25.19)"/><path class="cls-6" d="M594,599.69c-5.24-3.4-10.49-6.79-15.71-10.22-2.95-1.94-5.46-4.48-8.22.79-1.94,3.7-4.64.35-7-.69-6.94-3-13.74-7-22.21-4.62-.23,5.07,5,6.35,6.87,10.77-2,2.45-12.38-8.66-7.43,5.31-5-5-9.34-8.21-14.8-9.62-2.31-.6-4.93-2.33-6.84-.13-2.32,2.67,1.84,3.87,2.18,6.13.24,1.59,1.73,3.07-.43,5.45a38.52,38.52,0,0,0-12.83-9.09c29.15-27.26,74.33-13.6,92.1,7.52,1.75,1.63,1,2.35-.95,2.67Z" transform="translate(-79.76 -25.19)"/><path class="cls-6" d="M475.08,608.48c0,3.89,4,10.61-5.84,6.93-3.12-1.17.59,5.38-3.68,5.86-3.83-3-.82-8.62-4.16-12.11-5.17,4.18-.74,10-2.78,14.5-2.29,3.81-5.07,2.46-7.88.76-1.22.16-1.21-3.7-2.36-1.39-1.8,3.63-.26,8.93-5.7,10.71-3.81-1.27-4.41-4.12-3.76-7.59,2.05-5.16,4.05-10.31,7.8-14.61C456.66,600.13,462.09,599.5,475.08,608.48Z" transform="translate(-79.76 -25.19)"/><path class="cls-18" d="M450.91,622.52a6.8,6.8,0,0,0,7.71,1.14l2.17,4.13c1.57,5.57,3.6,11.07,4.53,16.75.5,3.07,4.18,7.05.47,9.34-2.94,1.81-7,1.18-10.32-1.87-2.66-2.42-1.33,2.77-3.33,2.63A23.93,23.93,0,0,1,450.91,622.52Z" transform="translate(-79.76 -25.19)"/><path class="cls-18" d="M438.92,626.15c1.42,2.46,1.62,5.88,5.23,6.6,1.77,6.93,5,13.81.68,20.93-2,1-3.73,5.43-5.47,3-3-4.13-7.25-8.4-6.31-14.24S435.39,631,438.92,626.15Z" transform="translate(-79.76 -25.19)"/><path class="cls-6" d="M444.83,653.68q-.34-10.45-.67-20.93c.73-4,1.33-8.06,2.29-12,.34-1.41.85-4,3.07-2.87,1,.5,1,3,1.39,4.67-5.52,10.93-3,21.56,1.23,32.12C449.81,653.52,446.71,658.22,444.83,653.68Z" transform="translate(-79.76 -25.19)"/><path class="cls-6" d="M543.46,630.35c-3.83-10.72-9.4-20.54-16.89-32.27,11.35,6.57,13.42,16.68,18.23,24.86,1.79,3,1,9.35,7.68,7.47C549.43,638.55,546.47,630,543.46,630.35Z" transform="translate(-79.76 -25.19)"/><path class="cls-6" d="M598.73,604l.95-2.67c4.9,2.4,6,6.82,7.07,12.44C600.73,612.19,600.73,607.29,598.73,604Z" transform="translate(-79.76 -25.19)"/></svg>