<svg id="Capa_2" data-name="Capa 2" xmlns="http://www.w3.org/2000/svg" viewBox="0 0 3687 384"><defs><style>.cls-1{fill:#ca974d;}.cls-2{fill:#fff;}</style></defs><title>patronFondo</title><ellipse class="cls-1" cx="235.84" cy="183.59" rx="137.86" ry="55.73" transform="matrix(0.59, -0.81, 0.81, 0.59, -51.22, 266.8)"/><ellipse class="cls-2" cx="272.24" cy="133.49" rx="4.93" ry="34.53" transform="translate(75 363.77) rotate(-75.54)"/><ellipse class="cls-2" cx="251.58" cy="161.99" rx="4.93" ry="34.53" transform="translate(31.9 365.15) rotate(-75.54)"/><ellipse class="cls-2" cx="225.18" cy="198.4" rx="4.93" ry="34.53" transform="translate(-23.16 366.91) rotate(-75.54)"/><ellipse class="cls-2" cx="203.1" cy="235.53" rx="4.93" ry="34.53" transform="translate(-75.68 373.39) rotate(-75.54)"/><ellipse class="cls-1" cx="996.52" cy="201.19" rx="137.86" ry="55.73" transform="translate(248.78 889.97) rotate(-54.06)"/><ellipse class="cls-2" cx="1032.92" cy="151.09" rx="4.93" ry="34.53" transform="translate(628.7 1113.56) rotate(-75.54)"/><ellipse class="cls-2" cx="1012.26" cy="179.59" rx="4.93" ry="34.53" transform="translate(585.6 1114.94) rotate(-75.54)"/><ellipse class="cls-2" cx="985.86" cy="216" rx="4.93" ry="34.53" transform="translate(530.54 1116.7) rotate(-75.54)"/><ellipse class="cls-2" cx="963.78" cy="253.13" rx="4.93" ry="34.53" transform="translate(478.02 1123.18) rotate(-75.54)"/><ellipse class="cls-1" cx="2883.55" cy="179.68" rx="137.86" ry="55.73" transform="matrix(0.59, -0.81, 0.81, 0.59, 1045.76, 2408.96)"/><ellipse class="cls-2" cx="2919.95" cy="129.58" rx="4.93" ry="34.53" transform="translate(2065.38 2924.68) rotate(-75.54)"/><ellipse class="cls-2" cx="2899.29" cy="158.08" rx="4.93" ry="34.53" transform="translate(2022.29 2926.06) rotate(-75.54)"/><ellipse class="cls-2" cx="2872.9" cy="194.49" rx="4.93" ry="34.53" transform="translate(1967.22 2927.83) rotate(-75.54)"/><ellipse class="cls-2" cx="2850.82" cy="231.62" rx="4.93" ry="34.53" transform="translate(1914.7 2934.3) rotate(-75.54)"/><ellipse class="cls-1" cx="3562.1" cy="150.35" rx="137.86" ry="55.73" transform="translate(1349.83 2946.24) rotate(-54.06)"/><ellipse class="cls-2" cx="3598.5" cy="100.25" rx="4.93" ry="34.53" transform="translate(2602.91 3559.73) rotate(-75.54)"/><ellipse class="cls-2" cx="3577.84" cy="128.75" rx="4.93" ry="34.53" transform="translate(2559.81 3561.11) rotate(-75.54)"/><ellipse class="cls-2" cx="3551.45" cy="165.16" rx="4.93" ry="34.53" transform="translate(2504.74 3562.88) rotate(-75.54)"/><ellipse class="cls-2" cx="3529.37" cy="202.29" rx="4.93" ry="34.53" transform="translate(2452.22 3569.35) rotate(-75.54)"/><ellipse class="cls-1" cx="619.11" cy="196.96" rx="40.19" ry="99.42" transform="translate(-9.22 362.16) rotate(-32.38)"/><ellipse class="cls-2" cx="595.15" cy="159.27" rx="24.9" ry="3.56" transform="translate(-19.38 115.43) rotate(-10.9)"/><ellipse class="cls-2" cx="608.75" cy="180.7" rx="24.9" ry="3.56" transform="translate(-23.19 118.39) rotate(-10.9)"/><ellipse class="cls-2" cx="626.12" cy="208.09" rx="24.9" ry="3.56" transform="translate(-28.06 122.17) rotate(-10.9)"/><ellipse class="cls-2" cx="640.35" cy="235.8" rx="24.9" ry="3.56" transform="translate(-33.04 125.36) rotate(-10.9)"/><ellipse class="cls-1" cx="3223.8" cy="159.8" rx="40.19" ry="99.42" transform="translate(415.64 1751.23) rotate(-32.38)"/><ellipse class="cls-2" cx="3199.85" cy="122.11" rx="24.9" ry="3.56" transform="translate(34.65 607.38) rotate(-10.9)"/><ellipse class="cls-2" cx="3213.44" cy="143.55" rx="24.9" ry="3.56" transform="translate(30.85 610.34) rotate(-10.9)"/><ellipse class="cls-2" cx="3230.81" cy="170.94" rx="24.9" ry="3.56" transform="translate(25.98 614.12) rotate(-10.9)"/><ellipse class="cls-2" cx="3245.04" cy="198.65" rx="24.9" ry="3.56" transform="translate(20.99 617.31) rotate(-10.9)"/><ellipse class="cls-1" cx="1361.15" cy="205.71" rx="40.19" ry="99.42" transform="translate(101.46 760.89) rotate(-32.38)"/><ellipse class="cls-2" cx="1337.19" cy="168.02" rx="24.9" ry="3.56" transform="translate(-7.65 255.93) rotate(-10.9)"/><ellipse class="cls-2" cx="1350.78" cy="189.46" rx="24.9" ry="3.56" transform="translate(-11.45 258.89) rotate(-10.9)"/><ellipse class="cls-2" cx="1368.15" cy="216.85" rx="24.9" ry="3.56" transform="translate(-16.32 262.67) rotate(-10.9)"/><ellipse class="cls-2" cx="1382.38" cy="244.56" rx="24.9" ry="3.56" transform="matrix(0.98, -0.19, 0.19, 0.98, -21.3, 265.86)"/><ellipse class="cls-1" cx="1680.94" cy="185.55" rx="137.86" ry="55.73" transform="translate(544.19 1437.66) rotate(-54.06)"/><ellipse class="cls-2" cx="1717.33" cy="135.44" rx="4.93" ry="34.53" transform="translate(1157.37 1764.56) rotate(-75.54)"/><ellipse class="cls-2" cx="1696.68" cy="163.94" rx="4.93" ry="34.53" transform="translate(1114.27 1765.94) rotate(-75.54)"/><ellipse class="cls-2" cx="1670.28" cy="200.36" rx="4.93" ry="34.53" transform="translate(1059.21 1767.7) rotate(-75.54)"/><ellipse class="cls-2" cx="1648.2" cy="237.49" rx="4.93" ry="34.53" transform="translate(1006.69 1774.18) rotate(-75.54)"/><ellipse class="cls-1" cx="2433.79" cy="183.59" rx="137.86" ry="55.73" transform="translate(856.79 2046.42) rotate(-54.06)"/><ellipse class="cls-2" cx="2470.19" cy="133.49" rx="4.93" ry="34.53" transform="translate(1724.14 2492.11) rotate(-75.54)"/><ellipse class="cls-2" cx="2449.53" cy="161.99" rx="4.93" ry="34.53" transform="translate(1681.04 2493.49) rotate(-75.54)"/><ellipse class="cls-2" cx="2423.14" cy="198.4" rx="4.93" ry="34.53" transform="translate(1625.97 2495.25) rotate(-75.54)"/><ellipse class="cls-2" cx="2401.06" cy="235.53" rx="4.93" ry="34.53" transform="translate(1573.45 2501.72) rotate(-75.54)"/><ellipse class="cls-1" cx="2064.21" cy="198.91" rx="40.19" ry="99.42" transform="matrix(0.84, -0.54, 0.54, 0.84, 214.41, 1136.33)"/><ellipse class="cls-2" cx="2040.25" cy="161.22" rx="24.9" ry="3.56" transform="translate(6.33 388.78) rotate(-10.9)"/><ellipse class="cls-2" cx="2053.84" cy="182.66" rx="24.9" ry="3.56" transform="translate(2.52 391.74) rotate(-10.9)"/><ellipse class="cls-2" cx="2071.21" cy="210.05" rx="24.9" ry="3.56" transform="translate(-2.35 395.52) rotate(-10.9)"/><ellipse class="cls-2" cx="2085.44" cy="237.76" rx="24.9" ry="3.56" transform="translate(-7.33 398.71) rotate(-10.9)"/></svg>